<svg width="71" height="71" viewBox="0 0 71 71" fill="none" xmlns="http://www.w3.org/2000/svg">
<path d="M63.2344 2.21875H7.76562C6.29504 2.22051 4.8852 2.80548 3.84534 3.84534C2.80548 4.8852 2.22051 6.29504 2.21875 7.76562V63.2344C2.22051 64.705 2.80548 66.1148 3.84534 67.1547C4.8852 68.1945 6.29504 68.7795 7.76562 68.7812H63.2344C64.705 68.7795 66.1148 68.1945 67.1547 67.1547C68.1945 66.1148 68.7795 64.705 68.7812 63.2344V7.76562C68.7795 6.29504 68.1945 4.8852 67.1547 3.84534C66.1148 2.80548 64.705 2.22051 63.2344 2.21875ZM7.76562 4.4375H63.2344C64.1171 4.4375 64.9636 4.78814 65.5877 5.41229C66.2119 6.03643 66.5625 6.88295 66.5625 7.76562V13.3125H4.4375V7.76562C4.4375 6.88295 4.78814 6.03643 5.41229 5.41229C6.03643 4.78814 6.88295 4.4375 7.76562 4.4375ZM4.4375 63.2344V15.5312H66.5625V37.3294C65.932 37.4536 65.3515 37.759 64.8918 38.208L62.642 40.45C62.1117 40.1983 61.5689 39.9739 61.0156 39.7777V36.6094C61.0156 35.7267 60.665 34.8802 60.0408 34.256C59.4167 33.6319 58.5702 33.2812 57.6875 33.2812H53.25C52.3673 33.2812 51.5208 33.6319 50.8967 34.256C50.2725 34.8802 49.9219 35.7267 49.9219 36.6094V39.7777C49.3672 39.9751 48.8232 40.2013 48.2922 40.4556L46.0468 38.2091C45.4142 37.6049 44.5731 37.2677 43.6983 37.2677C42.8235 37.2677 41.9823 37.6049 41.3497 38.2091L38.2102 41.3475C37.9014 41.6558 37.6564 42.022 37.4892 42.4251C37.322 42.8281 37.236 43.2602 37.236 43.6966C37.236 44.133 37.322 44.5651 37.4892 44.9682C37.6564 45.3713 37.9014 45.7374 38.2102 46.0457L40.4567 48.2922C40.2015 48.823 39.9749 49.367 39.7777 49.9219H36.6094C35.7267 49.9219 34.8802 50.2725 34.256 50.8967C33.6319 51.5208 33.2812 52.3673 33.2812 53.25V57.6875C33.2812 58.5702 33.6319 59.4167 34.256 60.0408C34.8802 60.665 35.7267 61.0156 36.6094 61.0156H39.7777C39.975 61.5702 40.2016 62.1138 40.4567 62.6442L38.2102 64.8907C37.7603 65.3505 37.4542 65.9314 37.3294 66.5625H7.76562C6.88295 66.5625 6.03643 66.2119 5.41229 65.5877C4.78814 64.9636 4.4375 64.1171 4.4375 63.2344ZM63.2344 66.5625H39.699C39.7238 66.5267 39.7504 66.4923 39.7789 66.4593L42.5967 63.6415C42.7662 63.4719 42.8762 63.2519 42.9102 63.0145C42.9442 62.7771 42.9004 62.5351 42.7853 62.3247C42.3115 61.4532 41.9286 60.5354 41.6426 59.5856C41.5738 59.3576 41.4334 59.1578 41.2422 59.0157C41.051 58.8737 40.8191 58.797 40.5809 58.7969H36.6094C36.3152 58.7969 36.033 58.68 35.8249 58.4719C35.6169 58.2639 35.5 57.9817 35.5 57.6875V53.25C35.5 52.9558 35.6169 52.6736 35.8249 52.4656C36.033 52.2575 36.3152 52.1406 36.6094 52.1406H40.5809C40.8191 52.1405 41.051 52.0638 41.2422 51.9218C41.4334 51.7797 41.5738 51.5799 41.6426 51.3519C41.9286 50.4021 42.3115 49.4843 42.7853 48.6128C42.9004 48.4024 42.9442 48.1604 42.9102 47.923C42.8762 47.6856 42.7662 47.4656 42.5967 47.296L39.7789 44.4771C39.6762 44.3749 39.5947 44.2535 39.5391 44.1197C39.4835 43.986 39.4549 43.8426 39.4549 43.6977C39.4549 43.5529 39.4835 43.4095 39.5391 43.2757C39.5947 43.142 39.6762 43.0205 39.7789 42.9184L42.9184 39.7789C43.1282 39.5778 43.4076 39.4655 43.6983 39.4655C43.9889 39.4655 44.2683 39.5778 44.4782 39.7789L47.296 42.5967C47.4656 42.7662 47.6856 42.8762 47.923 42.9102C48.1604 42.9442 48.4024 42.9004 48.6128 42.7853C49.4832 42.3105 50.4009 41.9279 51.3507 41.6437C51.5792 41.575 51.7794 41.4345 51.9216 41.2431C52.0639 41.0517 52.1407 40.8195 52.1406 40.5809V36.6094C52.1406 36.3152 52.2575 36.033 52.4656 35.8249C52.6736 35.6169 52.9558 35.5 53.25 35.5H57.6875C57.9817 35.5 58.2639 35.6169 58.4719 35.8249C58.68 36.033 58.7969 36.3152 58.7969 36.6094V40.5809C58.7968 40.8195 58.8736 41.0517 59.0159 41.2431C59.1581 41.4345 59.3583 41.575 59.5868 41.6437C60.5377 41.9296 61.4575 42.3101 62.3325 42.7797C62.5422 42.8923 62.7826 42.9344 63.0181 42.8999C63.2537 42.8653 63.4718 42.7559 63.6404 42.5878L66.4593 39.7789C66.492 39.7501 66.5264 39.7234 66.5625 39.699V63.2344C66.5625 64.1171 66.2119 64.9636 65.5877 65.5877C64.9636 66.2119 64.1171 66.5625 63.2344 66.5625Z" fill="url(#paint0_linear)"/>
<path d="M9.98437 12.2031C10.6426 12.2031 11.2861 12.0079 11.8334 11.6422C12.3807 11.2765 12.8073 10.7568 13.0592 10.1486C13.3111 9.54048 13.377 8.87131 13.2485 8.22572C13.1201 7.58012 12.8032 6.98711 12.3377 6.52166C11.8723 6.05621 11.2793 5.73924 10.6337 5.61083C9.98807 5.48241 9.31889 5.54832 8.71076 5.80021C8.10262 6.05211 7.58284 6.47869 7.21714 7.02599C6.85144 7.5733 6.65625 8.21676 6.65625 8.875C6.65625 9.75768 7.00689 10.6042 7.63103 11.2283C8.25518 11.8525 9.1017 12.2031 9.98437 12.2031ZM9.98437 7.76563C10.2038 7.76563 10.4183 7.83069 10.6007 7.95259C10.7831 8.07449 10.9253 8.24775 11.0093 8.45046C11.0933 8.65317 11.1152 8.87623 11.0724 9.09143C11.0296 9.30663 10.924 9.5043 10.7688 9.65945C10.6137 9.8146 10.416 9.92025 10.2008 9.96306C9.9856 10.0059 9.76255 9.9839 9.55983 9.89993C9.35712 9.81596 9.18386 9.67377 9.06196 9.49134C8.94006 9.3089 8.875 9.09441 8.875 8.875C8.875 8.58078 8.99188 8.2986 9.19993 8.09055C9.40798 7.88251 9.69015 7.76563 9.98437 7.76563Z" fill="url(#paint1_linear)"/>
<path d="M17.75 12.2031C18.4082 12.2031 19.0517 12.0079 19.599 11.6422C20.1463 11.2765 20.5729 10.7568 20.8248 10.1486C21.0767 9.54048 21.1426 8.87131 21.0142 8.22572C20.8858 7.58012 20.5688 6.98711 20.1033 6.52166C19.6379 6.05621 19.0449 5.73924 18.3993 5.61083C17.7537 5.48241 17.0845 5.54832 16.4764 5.80021C15.8682 6.05211 15.3485 6.47869 14.9828 7.02599C14.6171 7.5733 14.4219 8.21676 14.4219 8.875C14.4219 9.75768 14.7725 10.6042 15.3967 11.2283C16.0208 11.8525 16.8673 12.2031 17.75 12.2031ZM17.75 7.76563C17.9694 7.76563 18.1839 7.83069 18.3663 7.95259C18.5488 8.07449 18.691 8.24775 18.7749 8.45046C18.8589 8.65317 18.8809 8.87623 18.8381 9.09143C18.7953 9.30663 18.6896 9.5043 18.5344 9.65945C18.3793 9.8146 18.1816 9.92025 17.9664 9.96306C17.7512 10.0059 17.5282 9.9839 17.3255 9.89993C17.1227 9.81596 16.9495 9.67377 16.8276 9.49134C16.7057 9.3089 16.6406 9.09441 16.6406 8.875C16.6406 8.58078 16.7575 8.2986 16.9656 8.09055C17.1736 7.88251 17.4558 7.76563 17.75 7.76563Z" fill="url(#paint2_linear)"/>
<path d="M25.5156 12.2031C26.1739 12.2031 26.8173 12.0079 27.3646 11.6422C27.9119 11.2765 28.3385 10.7568 28.5904 10.1486C28.8423 9.54048 28.9082 8.87131 28.7798 8.22572C28.6514 7.58012 28.3344 6.98711 27.869 6.52166C27.4035 6.05621 26.8105 5.73924 26.1649 5.61083C25.5193 5.48241 24.8501 5.54832 24.242 5.80021C23.6339 6.05211 23.1141 6.47869 22.7484 7.02599C22.3827 7.5733 22.1875 8.21676 22.1875 8.875C22.1875 9.75768 22.5381 10.6042 23.1623 11.2283C23.7864 11.8525 24.633 12.2031 25.5156 12.2031ZM25.5156 7.76563C25.735 7.76563 25.9495 7.83069 26.132 7.95259C26.3144 8.07449 26.4566 8.24775 26.5406 8.45046C26.6245 8.65317 26.6465 8.87623 26.6037 9.09143C26.5609 9.30663 26.4552 9.5043 26.3001 9.65945C26.1449 9.8146 25.9473 9.92025 25.7321 9.96306C25.5169 10.0059 25.2938 9.9839 25.0911 9.89993C24.8884 9.81596 24.7151 9.67377 24.5932 9.49134C24.4713 9.3089 24.4062 9.09441 24.4062 8.875C24.4062 8.58078 24.5231 8.2986 24.7312 8.09055C24.9392 7.88251 25.2214 7.76563 25.5156 7.76563Z" fill="url(#paint3_linear)"/>
<path d="M55.4688 46.5938C53.7134 46.5938 51.9976 47.1143 50.5381 48.0895C49.0786 49.0647 47.9411 50.4507 47.2693 52.0724C46.5976 53.6941 46.4218 55.4786 46.7643 57.2002C47.1067 58.9218 47.952 60.5031 49.1932 61.7443C50.4344 62.9855 52.0157 63.8308 53.7373 64.1732C55.4589 64.5157 57.2434 64.3399 58.8651 63.6682C60.4868 62.9965 61.8729 61.8589 62.8481 60.3994C63.8232 58.94 64.3438 57.2241 64.3438 55.4688C64.3411 53.1158 63.4052 50.8599 61.7414 49.1961C60.0776 47.5323 57.8217 46.5964 55.4688 46.5938ZM55.4688 62.125C54.1523 62.125 52.8654 61.7346 51.7707 61.0032C50.6761 60.2718 49.823 59.2323 49.3192 58.016C48.8154 56.7997 48.6836 55.4614 48.9404 54.1702C49.1972 52.879 49.8312 51.693 50.7621 50.7621C51.693 49.8312 52.879 49.1972 54.1702 48.9404C55.4614 48.6836 56.7997 48.8154 58.016 49.3192C59.2323 49.823 60.2718 50.6761 61.0032 51.7707C61.7346 52.8654 62.125 54.1523 62.125 55.4688C62.1232 57.2336 61.4214 58.9256 60.1735 60.1735C58.9256 61.4214 57.2336 62.1232 55.4688 62.125Z" fill="url(#paint4_linear)"/>
<path d="M9.98438 35.5C10.2786 35.5 10.5608 35.3831 10.7688 35.1751C10.9769 34.967 11.0938 34.6848 11.0938 34.3906V28.8438H15.5312V34.3906C15.5312 34.6848 15.6481 34.967 15.8562 35.1751C16.0642 35.3831 16.3464 35.5 16.6406 35.5C16.9348 35.5 17.217 35.3831 17.4251 35.1751C17.6331 34.967 17.75 34.6848 17.75 34.3906V24.4062C17.75 23.2294 17.2825 22.1007 16.4503 21.2685C15.6181 20.4363 14.4894 19.9688 13.3125 19.9688C12.1356 19.9688 11.0069 20.4363 10.1747 21.2685C9.34252 22.1007 8.875 23.2294 8.875 24.4062V34.3906C8.875 34.6848 8.99188 34.967 9.19993 35.1751C9.40798 35.3831 9.69015 35.5 9.98438 35.5ZM13.3125 22.1875C13.9009 22.1875 14.4653 22.4213 14.8814 22.8374C15.2975 23.2535 15.5312 23.8178 15.5312 24.4062V26.625H11.0938V24.4062C11.0938 23.8178 11.3275 23.2535 11.7436 22.8374C12.1597 22.4213 12.7241 22.1875 13.3125 22.1875Z" fill="url(#paint5_linear)"/>
<path d="M21.0781 35.5C21.3723 35.5 21.6545 35.3831 21.8626 35.1751C22.0706 34.967 22.1875 34.6848 22.1875 34.3906V28.8438H25.5156C26.3983 28.8438 27.2448 28.4931 27.869 27.869C28.4931 27.2448 28.8438 26.3983 28.8438 25.5156V23.2969C28.8438 22.4142 28.4931 21.5677 27.869 20.9435C27.2448 20.3194 26.3983 19.9688 25.5156 19.9688H21.0781C20.7839 19.9688 20.5017 20.0856 20.2937 20.2937C20.0856 20.5017 19.9688 20.7839 19.9688 21.0781V34.3906C19.9688 34.6848 20.0856 34.967 20.2937 35.1751C20.5017 35.3831 20.7839 35.5 21.0781 35.5ZM22.1875 22.1875H25.5156C25.8098 22.1875 26.092 22.3044 26.3001 22.5124C26.5081 22.7205 26.625 23.0027 26.625 23.2969V25.5156C26.625 25.8098 26.5081 26.092 26.3001 26.3001C26.092 26.5081 25.8098 26.625 25.5156 26.625H22.1875V22.1875Z" fill="url(#paint6_linear)"/>
<path d="M32.1719 35.5C32.4661 35.5 32.7483 35.3831 32.9563 35.1751C33.1644 34.967 33.2812 34.6848 33.2812 34.3906V21.0781C33.2812 20.7839 33.1644 20.5017 32.9563 20.2937C32.7483 20.0856 32.4661 19.9688 32.1719 19.9688C31.8777 19.9688 31.5955 20.0856 31.3874 20.2937C31.1794 20.5017 31.0625 20.7839 31.0625 21.0781V34.3906C31.0625 34.6848 31.1794 34.967 31.3874 35.1751C31.5955 35.3831 31.8777 35.5 32.1719 35.5Z" fill="url(#paint7_linear)"/>
<path d="M9.98438 42.1562H32.1719C32.4661 42.1562 32.7483 42.0394 32.9563 41.8313C33.1644 41.6233 33.2812 41.3411 33.2812 41.0469C33.2812 40.7527 33.1644 40.4705 32.9563 40.2624C32.7483 40.0544 32.4661 39.9375 32.1719 39.9375H9.98438C9.69015 39.9375 9.40798 40.0544 9.19993 40.2624C8.99188 40.4705 8.875 40.7527 8.875 41.0469C8.875 41.3411 8.99188 41.6233 9.19993 41.8313C9.40798 42.0394 9.69015 42.1562 9.98438 42.1562Z" fill="url(#paint8_linear)"/>
<path d="M32.1719 46.5938H9.98438C9.69015 46.5938 9.40798 46.7106 9.19993 46.9187C8.99188 47.1267 8.875 47.4089 8.875 47.7031C8.875 47.9973 8.99188 48.2795 9.19993 48.4876C9.40798 48.6956 9.69015 48.8125 9.98438 48.8125H32.1719C32.4661 48.8125 32.7483 48.6956 32.9563 48.4876C33.1644 48.2795 33.2812 47.9973 33.2812 47.7031C33.2812 47.4089 33.1644 47.1267 32.9563 46.9187C32.7483 46.7106 32.4661 46.5938 32.1719 46.5938Z" fill="url(#paint9_linear)"/>
<path d="M28.8438 53.25H9.98438C9.69015 53.25 9.40798 53.3669 9.19993 53.5749C8.99188 53.783 8.875 54.0652 8.875 54.3594C8.875 54.6536 8.99188 54.9358 9.19993 55.1438C9.40798 55.3519 9.69015 55.4688 9.98438 55.4688H28.8438C29.138 55.4688 29.4201 55.3519 29.6282 55.1438C29.8362 54.9358 29.9531 54.6536 29.9531 54.3594C29.9531 54.0652 29.8362 53.783 29.6282 53.5749C29.4201 53.3669 29.138 53.25 28.8438 53.25Z" fill="url(#paint10_linear)"/>
<defs>
<linearGradient id="paint0_linear" x1="35.5" y1="2.21875" x2="35.5" y2="68.7812" gradientUnits="userSpaceOnUse">
<stop stop-color="#0075FB"/>
<stop offset="1" stop-color="#3392FF"/>
</linearGradient>
<linearGradient id="paint1_linear" x1="9.98437" y1="5.54688" x2="9.98437" y2="12.2031" gradientUnits="userSpaceOnUse">
<stop stop-color="#0075FB"/>
<stop offset="1" stop-color="#3392FF"/>
</linearGradient>
<linearGradient id="paint2_linear" x1="17.75" y1="5.54688" x2="17.75" y2="12.2031" gradientUnits="userSpaceOnUse">
<stop stop-color="#0075FB"/>
<stop offset="1" stop-color="#3392FF"/>
</linearGradient>
<linearGradient id="paint3_linear" x1="25.5156" y1="5.54688" x2="25.5156" y2="12.2031" gradientUnits="userSpaceOnUse">
<stop stop-color="#0075FB"/>
<stop offset="1" stop-color="#3392FF"/>
</linearGradient>
<linearGradient id="paint4_linear" x1="55.4688" y1="46.5938" x2="55.4688" y2="64.3438" gradientUnits="userSpaceOnUse">
<stop stop-color="#0075FB"/>
<stop offset="1" stop-color="#3392FF"/>
</linearGradient>
<linearGradient id="paint5_linear" x1="13.3125" y1="19.9688" x2="13.3125" y2="35.5" gradientUnits="userSpaceOnUse">
<stop stop-color="#0075FB"/>
<stop offset="1" stop-color="#3392FF"/>
</linearGradient>
<linearGradient id="paint6_linear" x1="24.4062" y1="19.9688" x2="24.4062" y2="35.5" gradientUnits="userSpaceOnUse">
<stop stop-color="#0075FB"/>
<stop offset="1" stop-color="#3392FF"/>
</linearGradient>
<linearGradient id="paint7_linear" x1="32.1719" y1="19.9688" x2="32.1719" y2="35.5" gradientUnits="userSpaceOnUse">
<stop stop-color="#0075FB"/>
<stop offset="1" stop-color="#3392FF"/>
</linearGradient>
<linearGradient id="paint8_linear" x1="21.0781" y1="39.9375" x2="21.0781" y2="42.1562" gradientUnits="userSpaceOnUse">
<stop stop-color="#0075FB"/>
<stop offset="1" stop-color="#3392FF"/>
</linearGradient>
<linearGradient id="paint9_linear" x1="21.0781" y1="46.5938" x2="21.0781" y2="48.8125" gradientUnits="userSpaceOnUse">
<stop stop-color="#0075FB"/>
<stop offset="1" stop-color="#3392FF"/>
</linearGradient>
<linearGradient id="paint10_linear" x1="19.4141" y1="53.25" x2="19.4141" y2="55.4688" gradientUnits="userSpaceOnUse">
<stop stop-color="#0075FB"/>
<stop offset="1" stop-color="#3392FF"/>
</linearGradient>
</defs>
</svg>
