<svg width="40" height="40" viewBox="0 0 40 40" fill="none" xmlns="http://www.w3.org/2000/svg">
<g clip-path="url(#clip0)">
<path d="M6.21875 20.2905L8.30602 19.2984L9.77523 19.907L10.5496 22.0845C10.5928 22.206 10.6726 22.3111 10.7779 22.3855C10.8833 22.4599 11.0091 22.4999 11.138 22.5H13.862C13.991 22.5 14.1169 22.46 14.2223 22.3856C14.3277 22.3112 14.4075 22.206 14.4508 22.0845L15.2252 19.907L16.6944 19.2984L18.7816 20.2905C18.8982 20.3459 19.0291 20.3638 19.1562 20.3419C19.2834 20.3199 19.4007 20.2592 19.492 20.168L21.418 18.2422C21.5092 18.1509 21.57 18.0337 21.592 17.9065C21.6139 17.7793 21.596 17.6484 21.5405 17.5319L20.5484 15.4446L21.157 13.9754L23.3345 13.201C23.4561 13.1578 23.5613 13.0779 23.6357 12.9724C23.7101 12.867 23.75 12.741 23.75 12.612V9.88805C23.75 9.75901 23.71 9.63313 23.6356 9.52771C23.5612 9.42228 23.456 9.34246 23.3345 9.29922L21.157 8.52484L20.5484 7.05562L21.5405 4.96836C21.596 4.85177 21.614 4.72086 21.5921 4.59363C21.5701 4.46639 21.5093 4.34908 21.418 4.25781L19.4922 2.33203C19.4009 2.24076 19.2837 2.17998 19.1565 2.15803C19.0293 2.13608 18.8984 2.15404 18.7819 2.20945L16.6946 3.20164L15.2254 2.59305L14.4508 0.415547C14.4075 0.29397 14.3277 0.188759 14.2223 0.114356C14.1169 0.0399528 13.991 6.28104e-06 13.862 0L11.138 0C11.009 6.28104e-06 10.8831 0.0399528 10.7777 0.114356C10.6723 0.188759 10.5925 0.29397 10.5492 0.415547L9.77484 2.59305L8.30562 3.20164L6.21875 2.20945C6.10211 2.1539 5.97112 2.13586 5.84381 2.15781C5.7165 2.17976 5.59911 2.24063 5.50781 2.33203L3.58203 4.25781C3.49063 4.34911 3.42976 4.4665 3.40781 4.59381C3.38586 4.72112 3.4039 4.85211 3.45945 4.96875L4.45164 7.05602L3.84305 8.52523L1.66555 9.29922C1.54397 9.34246 1.43876 9.42228 1.36436 9.52771C1.28995 9.63313 1.25001 9.75901 1.25 9.88805V12.612C1.25001 12.741 1.28995 12.8669 1.36436 12.9723C1.43876 13.0777 1.54397 13.1575 1.66555 13.2008L3.84305 13.9752L4.45164 15.4444L3.45945 17.5316C3.40399 17.6482 3.386 17.7791 3.40795 17.9064C3.4299 18.0336 3.49071 18.1509 3.58203 18.2422L5.50781 20.168C5.59915 20.2593 5.71653 20.3201 5.84383 20.3421C5.97113 20.364 6.1021 20.346 6.21875 20.2905ZM5.71281 15.2227L4.89156 13.2402C4.85809 13.1594 4.80803 13.0865 4.74461 13.0263C4.6812 12.9661 4.60585 12.9199 4.52344 12.8906L2.5 12.1709V10.3291L4.52344 9.60938C4.60583 9.5801 4.68117 9.53384 4.74455 9.4736C4.80794 9.41337 4.85797 9.34049 4.89141 9.25969L5.71281 7.27734C5.74633 7.19651 5.76251 7.10955 5.76028 7.02207C5.75806 6.93459 5.7375 6.84856 5.69992 6.76953L4.77805 4.82977L6.08008 3.52781L8.01984 4.44969C8.09886 4.4873 8.1849 4.50789 8.27238 4.51011C8.35986 4.51233 8.44684 4.49614 8.52766 4.46258L10.5102 3.64133C10.5909 3.60785 10.6636 3.5578 10.7238 3.49443C10.784 3.43106 10.8301 3.35578 10.8594 3.27344L11.5791 1.25H13.4209L14.1406 3.27344C14.1699 3.35583 14.2162 3.43117 14.2764 3.49455C14.3366 3.55794 14.4095 3.60797 14.4903 3.64141L16.4727 4.46281C16.5535 4.49637 16.6404 4.51256 16.7279 4.51034C16.8154 4.50812 16.9015 4.48754 16.9805 4.44992L18.9202 3.52805L20.2225 4.83031L19.3006 6.77008C19.263 6.8491 19.2425 6.93514 19.2403 7.02262C19.238 7.11009 19.2542 7.19706 19.2877 7.27789L20.109 9.26039C20.1425 9.34102 20.1925 9.41374 20.2558 9.47385C20.3191 9.53396 20.3943 9.58013 20.4766 9.60938L22.5 10.329V12.1707L20.4766 12.8906C20.3942 12.9199 20.3188 12.9662 20.2554 13.0264C20.1921 13.0866 20.142 13.1595 20.1086 13.2403L19.2872 15.2227C19.2537 15.3035 19.2375 15.3905 19.2397 15.4779C19.2419 15.5654 19.2625 15.6514 19.3001 15.7305L20.222 17.6702L18.9197 18.9725L16.9799 18.0506C16.9009 18.013 16.8149 17.9924 16.7274 17.9902C16.6399 17.988 16.5529 18.0042 16.4721 18.0377L14.4896 18.859C14.409 18.8925 14.3363 18.9425 14.2762 19.0058C14.216 19.0691 14.1699 19.1443 14.1406 19.2266L13.4209 21.25H11.5791L10.8594 19.2266C10.8301 19.1442 10.7838 19.0688 10.7236 19.0054C10.6634 18.9421 10.5905 18.892 10.5097 18.8586L8.52734 18.0372C8.44652 18.0036 8.35955 17.9874 8.27207 17.9897C8.18458 17.9919 8.09855 18.0125 8.01953 18.0501L6.07977 18.972L4.77781 17.6699L5.69969 15.7302C5.73726 15.6512 5.75784 15.5652 5.7601 15.4778C5.76236 15.3904 5.74625 15.3035 5.71281 15.2227Z" fill="white"/>
<path d="M12.5 16.875C13.6125 16.875 14.7001 16.5451 15.6251 15.927C16.5501 15.3089 17.2711 14.4304 17.6968 13.4026C18.1226 12.3748 18.234 11.2438 18.0169 10.1526C17.7999 9.06148 17.2641 8.0592 16.4775 7.27253C15.6908 6.48586 14.6885 5.95013 13.5974 5.73309C12.5062 5.51604 11.3752 5.62744 10.3474 6.05318C9.31957 6.47892 8.44107 7.19989 7.82298 8.12492C7.2049 9.04995 6.875 10.1375 6.875 11.25C6.87667 12.7413 7.46985 14.1711 8.52437 15.2256C9.5789 16.2802 11.0087 16.8733 12.5 16.875ZM12.5 6.875C13.3653 6.875 14.2112 7.13159 14.9306 7.61232C15.6501 8.09305 16.2108 8.77634 16.542 9.57576C16.8731 10.3752 16.9597 11.2549 16.7909 12.1035C16.6221 12.9522 16.2054 13.7317 15.5936 14.3436C14.9817 14.9554 14.2022 15.3721 13.3535 15.5409C12.5049 15.7097 11.6252 15.6231 10.8258 15.292C10.0263 14.9608 9.34305 14.4001 8.86232 13.6806C8.38159 12.9612 8.125 12.1153 8.125 11.25C8.1263 10.0901 8.58766 8.97804 9.40785 8.15785C10.228 7.33766 11.3401 6.87631 12.5 6.875Z" fill="white"/>
<path d="M24.5941 30.1152L23.773 32.0977C23.7395 32.1785 23.7234 32.2655 23.7256 32.353C23.7278 32.4405 23.7484 32.5265 23.7859 32.6055L24.7078 34.5453L23.4055 35.8476L21.4658 34.9257C21.3868 34.8881 21.3007 34.8675 21.2132 34.8653C21.1258 34.8631 21.0388 34.8793 20.958 34.9128L18.9762 35.7335C18.8954 35.7669 18.8225 35.817 18.7622 35.8804C18.702 35.9437 18.6557 36.0191 18.6264 36.1015L17.9066 38.1251H16.0652L15.3455 36.1016C15.3162 36.0192 15.2699 35.9439 15.2097 35.8805C15.1495 35.8171 15.0766 35.7671 14.9958 35.7336L13.0133 34.9124C12.9325 34.8788 12.8455 34.8626 12.758 34.8649C12.6705 34.8671 12.5845 34.8877 12.5055 34.9253L10.5657 35.8472L9.26344 34.5449L10.1853 32.6051C10.2229 32.5261 10.2435 32.4401 10.2457 32.3526C10.2479 32.2651 10.2317 32.1781 10.1982 32.0973L9.37711 30.1148C9.34364 30.0342 9.29364 29.9615 9.23034 29.9013C9.16705 29.8412 9.09185 29.795 9.00961 29.7657L6.98617 29.0461V27.2042L9.00961 26.4846C9.09201 26.4553 9.16734 26.409 9.23074 26.3488C9.29414 26.2886 9.34419 26.2157 9.37766 26.1349L10.1988 24.1524C10.2323 24.0716 10.2484 23.9846 10.2462 23.8971C10.244 23.8096 10.2234 23.7236 10.1859 23.6446L9.07438 21.3065L7.9457 21.8438L8.93789 23.9311L8.32938 25.4003L6.15188 26.1746C6.03029 26.2178 5.92507 26.2977 5.85066 26.4031C5.77626 26.5085 5.73632 26.6344 5.73633 26.7635V29.4874C5.73632 29.6164 5.77626 29.7423 5.85066 29.8478C5.92507 29.9532 6.03029 30.0331 6.15188 30.0763L8.32938 30.8506L8.93789 32.3198L7.9457 34.4071C7.8903 34.5237 7.87235 34.6545 7.89431 34.7817C7.91628 34.9089 7.97707 35.0262 8.06836 35.1174L9.99414 37.043C10.0854 37.1343 10.2026 37.1951 10.3298 37.217C10.457 37.2389 10.5878 37.221 10.7044 37.1656L12.7916 36.1734L14.2604 36.782L15.0348 38.9595C15.0781 39.0811 15.158 39.1864 15.2635 39.2608C15.369 39.3352 15.495 39.3751 15.6241 39.3751H18.348C18.477 39.3751 18.6029 39.3351 18.7084 39.2607C18.8138 39.1863 18.8936 39.0811 18.9369 38.9595L19.7112 36.782L21.1804 36.1734L23.2676 37.1656C23.3841 37.221 23.515 37.2389 23.6421 37.217C23.7693 37.1951 23.8866 37.1343 23.9778 37.043L25.9039 35.1172C25.9952 35.026 26.056 34.9087 26.078 34.7815C26.0999 34.6544 26.082 34.5235 26.0266 34.4069L25.0344 32.3197L25.7492 30.5938L24.5941 30.1152Z" fill="white"/>
<path d="M25.9041 21.1328L23.978 19.207C23.8867 19.1158 23.7695 19.055 23.6423 19.033C23.5151 19.0111 23.3843 19.029 23.2677 19.0844L20.9297 20.1959L21.4663 21.3249L23.4061 20.403L24.7084 21.7053L23.7865 23.6451C23.7489 23.7241 23.7283 23.8101 23.7261 23.8976C23.7239 23.9851 23.7401 24.072 23.7736 24.1529L24.4827 25.8647L25.6374 25.3863L25.0348 23.9312L26.027 21.8439C26.0825 21.7272 26.1005 21.5962 26.0785 21.4688C26.0565 21.3415 25.9956 21.2241 25.9041 21.1328Z" fill="white"/>
<path d="M16.9863 33.75C18.0988 33.75 19.1864 33.4201 20.1114 32.802C21.0364 32.1839 21.7574 31.3054 22.1832 30.2776C22.6089 29.2498 22.7203 28.1188 22.5032 27.0276C22.2862 25.9365 21.7505 24.9342 20.9638 24.1475C20.1771 23.3609 19.1749 22.8251 18.0837 22.6081C16.9926 22.391 15.8616 22.5024 14.8337 22.9282C13.8059 23.3539 12.9274 24.0749 12.3093 24.9999C11.6912 25.9249 11.3613 27.0125 11.3613 28.125C11.363 29.6163 11.9562 31.0461 13.0107 32.1006C14.0652 33.1552 15.495 33.7483 16.9863 33.75ZM16.9863 23.75C17.8516 23.75 18.6975 24.0066 19.4169 24.4873C20.1364 24.9681 20.6972 25.6513 21.0283 26.4508C21.3594 27.2502 21.4461 28.1299 21.2773 28.9785C21.1085 29.8272 20.6918 30.6067 20.0799 31.2186C19.4681 31.8305 18.6885 32.2471 17.8398 32.4159C16.9912 32.5848 16.1115 32.4981 15.3121 32.167C14.5127 31.8358 13.8294 31.2751 13.3486 30.5556C12.8679 29.8362 12.6113 28.9903 12.6113 28.125C12.6126 26.9651 13.074 25.853 13.8942 25.0328C14.7144 24.2127 15.8264 23.7513 16.9863 23.75Z" fill="white"/>
<path d="M38.3343 11.1742L36.1568 10.3998L35.5482 8.93062L36.5404 6.84336C36.5959 6.72677 36.6138 6.59586 36.5919 6.46863C36.5699 6.34139 36.5091 6.22408 36.4178 6.13281L34.492 4.20703C34.4008 4.11576 34.2835 4.05498 34.1563 4.03303C34.0291 4.01108 33.8983 4.02904 33.7817 4.08445L31.6945 5.07664L30.2252 4.46805L29.4509 2.29055C29.4077 2.16892 29.3278 2.06367 29.2223 1.98927C29.1168 1.91486 28.9909 1.87494 28.8618 1.875H26.1379C26.0088 1.87499 25.8829 1.91493 25.7775 1.98933C25.6721 2.06374 25.5922 2.16896 25.549 2.29055L24.7747 4.46805L23.0488 5.18305L23.5272 6.33781L25.5097 5.51656C25.5905 5.48307 25.6633 5.433 25.7235 5.36958C25.7837 5.30617 25.8299 5.23083 25.8592 5.14844L26.5787 3.125H28.4205L29.1405 5.14844C29.1697 5.23083 29.216 5.30617 29.2762 5.36955C29.3365 5.43294 29.4094 5.48297 29.4902 5.51641L31.4725 6.33781C31.5533 6.37133 31.6403 6.38751 31.7278 6.38528C31.8153 6.38306 31.9013 6.3625 31.9803 6.32492L33.9201 5.40305L35.2223 6.70531L34.3005 8.64508C34.2629 8.7241 34.2423 8.81014 34.2401 8.89762C34.2379 8.98509 34.2541 9.07206 34.2876 9.15289L35.1088 11.1354C35.1423 11.216 35.1923 11.2887 35.2557 11.3488C35.319 11.4089 35.3942 11.4551 35.4764 11.4844L37.4998 12.2039V14.0456L35.4764 14.7656C35.394 14.7949 35.3187 14.8412 35.2553 14.9015C35.1919 14.9617 35.1419 15.0346 35.1084 15.1154L34.287 17.0977C34.2535 17.1785 34.2373 17.2655 34.2396 17.3529C34.2418 17.4404 34.2623 17.5264 34.2999 17.6055L35.2218 19.5452L33.6077 21.1594L34.492 22.043L36.4178 20.1172C36.5091 20.0259 36.5699 19.9087 36.5918 19.7815C36.6138 19.6543 36.5958 19.5234 36.5404 19.4069L35.5482 17.3196L36.1568 15.8504L38.3343 15.0761C38.4559 15.0328 38.5612 14.953 38.6356 14.8475C38.71 14.742 38.7499 14.616 38.7498 14.487V11.763C38.7498 11.634 38.7099 11.5081 38.6355 11.4027C38.5611 11.2973 38.4559 11.2175 38.3343 11.1742Z" fill="white"/>
<path d="M27.4991 17.5C26.6269 17.5025 25.774 17.2432 25.0507 16.7558C24.3274 16.2683 23.767 15.575 23.442 14.7656L22.2832 15.2344C22.7129 16.2966 23.4568 17.2022 24.4153 17.8301C25.3738 18.4579 26.5011 18.7781 27.6466 18.7478C28.792 18.7174 29.9008 18.338 30.8247 17.6603C31.7486 16.9825 32.4435 16.0388 32.8164 14.9554C33.1893 13.8719 33.2225 12.7004 32.9114 11.5976C32.6003 10.4948 31.9598 9.51335 31.0757 8.78449C30.1916 8.05562 29.106 7.61415 27.9641 7.51913C26.8222 7.42412 25.6785 7.68009 24.6861 8.25281L25.3122 9.33476C25.8934 8.99969 26.5439 8.80276 27.2133 8.75922C27.8828 8.71567 28.5533 8.82667 29.173 9.08364C29.7928 9.3406 30.3451 9.73663 30.7873 10.2411C31.2295 10.7456 31.5498 11.3451 31.7234 11.9931C31.8969 12.6411 31.9191 13.3204 31.7883 13.9784C31.6574 14.6364 31.377 15.2555 30.9687 15.7878C30.5603 16.3201 30.0351 16.7514 29.4335 17.0483C28.8319 17.3452 28.17 17.4997 27.4991 17.5Z" fill="white"/>
<path d="M34.5895 23.75H32.5001V21.25C32.5001 20.7527 32.3025 20.2758 31.9509 19.9242C31.5993 19.5725 31.1224 19.375 30.6251 19.375C30.1278 19.375 29.6509 19.5725 29.2993 19.9242C28.9476 20.2758 28.7501 20.7527 28.7501 21.25V26.6162L28.3304 26.1963C27.9645 25.8305 27.4683 25.6249 26.9509 25.6249C26.4335 25.6249 25.9373 25.8305 25.5714 26.1963C25.2055 26.5622 25 27.0584 25 27.5758C25 28.0932 25.2055 28.5894 25.5714 28.9553L28.7501 32.1338V33.125H28.1251C27.9593 33.125 27.8003 33.1908 27.6831 33.3081C27.5659 33.4253 27.5001 33.5842 27.5001 33.75V39.375H28.7501V34.375H36.2501V39.375H37.5001V33.75C37.5001 33.5842 37.4342 33.4253 37.317 33.3081C37.1998 33.1908 37.0408 33.125 36.8751 33.125H36.2501V32.1338L37.5313 30.8526C38.1132 30.2707 38.5095 29.5294 38.67 28.7223C38.8306 27.9153 38.7482 27.0787 38.4333 26.3185C38.1184 25.5582 37.5852 24.9084 36.901 24.4512C36.2168 23.994 35.4124 23.75 34.5895 23.75ZM36.6476 29.9688L35.1831 31.4332C35.066 31.5504 35.0001 31.7093 35.0001 31.875V33.125H30.0001V31.875C30.0001 31.7929 29.9839 31.7116 29.9525 31.6358C29.9211 31.56 29.8751 31.4911 29.817 31.433L26.4554 28.0713C26.3894 28.0065 26.3369 27.9292 26.3009 27.8439C26.2649 27.7586 26.2462 27.6671 26.2457 27.5745C26.2453 27.482 26.2633 27.3903 26.2985 27.3047C26.3337 27.2191 26.3855 27.1414 26.451 27.0759C26.5164 27.0105 26.5942 26.9586 26.6798 26.9234C26.7654 26.8882 26.8571 26.8703 26.9496 26.8707C27.0422 26.8711 27.1337 26.8898 27.219 26.9258C27.3042 26.9618 27.3815 27.0143 27.4464 27.0803L28.9331 28.567C29.0205 28.6544 29.1319 28.7139 29.2531 28.738C29.3744 28.7621 29.5 28.7498 29.6143 28.7024C29.7285 28.6551 29.8261 28.575 29.8948 28.4722C29.9634 28.3695 30.0001 28.2486 30.0001 28.125V21.25C30.0001 21.0842 30.0659 20.9253 30.1831 20.8081C30.3003 20.6908 30.4593 20.625 30.6251 20.625C30.7908 20.625 30.9498 20.6908 31.067 20.8081C31.1842 20.9253 31.2501 21.0842 31.2501 21.25V24.375C31.2501 24.5408 31.3159 24.6997 31.4331 24.8169C31.5503 24.9342 31.7093 25 31.8751 25H34.5895C35.1652 25 35.728 25.1707 36.2066 25.4905C36.6853 25.8103 37.0584 26.2649 37.2787 26.7968C37.4989 27.3286 37.5566 27.9139 37.4442 28.4785C37.3319 29.0431 37.0547 29.5617 36.6476 29.9688Z" fill="white"/>
<path d="M33.75 35.625H35V36.875H33.75V35.625Z" fill="white"/>
</g>
<defs>
<clipPath id="clip0">
<rect width="40" height="40" fill="white"/>
</clipPath>
</defs>
</svg>
