<svg width="40" height="40" viewBox="0 0 40 40" fill="none" xmlns="http://www.w3.org/2000/svg">
<path d="M39.9247 9.48522C39.7871 8.97326 39.4512 8.53681 38.9916 8.27221C38.5317 8.0063 37.985 7.93437 37.472 8.07205C36.9598 8.21004 36.5233 8.5456 36.2587 9.00516L35.9254 9.58513C35.6087 9.4032 35.2042 9.51028 35.019 9.82533L33.3259 12.7112L32.746 12.378C32.5923 12.2891 32.4094 12.265 32.2382 12.3112C32.0667 12.3578 31.9209 12.4704 31.8327 12.6247C31.6521 12.9433 31.7621 13.3482 32.0794 13.5311L32.6594 13.8644L26.9937 23.6827L25.5939 27.4223L24.9273 28.6685C24.5371 29.3474 24.5787 30.1913 25.0341 30.8283L23.5343 32.6678L23.1145 31.6149C22.925 31.1456 22.4866 30.824 21.9825 30.7846C21.478 30.7449 20.9947 30.9942 20.7347 31.4281L20.4948 31.8346L20.2683 29.1684C20.2162 28.5376 19.7277 28.0306 19.0995 27.9544C18.471 27.8786 17.8761 28.2551 17.6753 28.8553L16.0356 33.7744C15.921 34.1223 16.1085 34.4972 16.4554 34.6144C16.5205 34.6447 16.5905 34.6629 16.6621 34.6674C16.9485 34.6684 17.2037 34.4858 17.2955 34.2144L18.9283 29.2953L19.1617 32.0012C19.2099 32.5786 19.6248 33.0587 20.1892 33.1895C20.7535 33.3203 21.3374 33.0717 21.6346 32.5747L21.8813 32.1679L22.2946 33.2146C22.47 33.6556 22.8668 33.9703 23.3364 34.0403C23.8061 34.1103 24.2773 33.9251 24.5742 33.5544L26.1273 31.5882C26.2991 31.6331 26.4762 31.6556 26.6539 31.6549C27.3683 31.6605 28.0316 31.2842 28.3935 30.6681L29.0601 29.555L31.5997 26.469L37.3253 16.5306L37.9052 16.8638C38.0598 16.9524 38.1724 17.0985 38.2183 17.2707C38.2645 17.4415 38.2405 17.6238 38.1519 17.7771L35.4857 22.3964C35.3852 22.5481 35.351 22.7343 35.3913 22.912C35.4317 23.0893 35.5427 23.2426 35.6989 23.336C35.8525 23.4252 36.0354 23.4493 36.2066 23.4031C36.3781 23.3566 36.524 23.2439 36.6122 23.0897L39.2784 18.4703C39.5443 18.0105 39.6162 17.4637 39.4782 16.9507C39.3402 16.4385 39.0047 16.002 38.5451 15.7374L37.9651 15.4041L39.6315 12.5179C39.8134 12.2012 39.7064 11.797 39.3916 11.6115L39.7249 11.0315C39.998 10.5645 40.0702 10.0066 39.9247 9.48522ZM37.4118 9.67171C37.5 9.51744 37.6465 9.4045 37.8187 9.35861C37.9899 9.3163 38.1708 9.34006 38.3251 9.42533C38.4797 9.51353 38.5923 9.65999 38.6385 9.83184C38.6808 10.003 38.6571 10.184 38.5718 10.3383L38.2385 10.9182L37.0785 10.2517L37.4118 9.67171ZM28.3268 28.2821L27.9935 28.0888L27.007 27.5153L27.9535 24.9826L30.0531 26.1956L28.3268 28.2821ZM26.3271 30.2082C26.0456 30.012 25.959 29.6345 26.1273 29.335L26.4606 28.7554L27.6202 29.4219L27.2869 29.9951C27.1935 30.1571 27.0366 30.2724 26.8541 30.313C26.6715 30.3534 26.4804 30.3157 26.3271 30.2082ZM30.813 25.1027L28.5068 23.7696L33.8392 14.5309L36.1454 15.864L30.813 25.1027ZM36.812 14.7109L34.5057 13.3778L35.8389 11.0715L38.1451 12.4046L36.812 14.7109Z" fill="white"/>
<path d="M10.519 29.8749L8.15973 32.228L6.74655 30.8148C6.48651 30.5564 6.06665 30.5564 5.80661 30.8148C5.68033 30.9401 5.60938 31.1103 5.60938 31.288C5.60938 31.4657 5.68033 31.6363 5.80661 31.7613L7.21978 33.1744C7.46974 33.4224 7.80757 33.5614 8.15973 33.5611C8.51383 33.563 8.85459 33.4241 9.10618 33.1744L11.459 30.8148C11.6855 30.5502 11.6702 30.1561 11.4241 29.91C11.1778 29.6636 10.7836 29.6483 10.519 29.8749Z" fill="white"/>
<path d="M2.66602 31.668C2.66602 34.7973 5.20269 37.3337 8.33172 37.3337C11.4607 37.3337 13.9974 34.7973 13.9974 31.668C13.9974 31.2999 13.699 31.0014 13.3309 31.0014C12.9628 31.0014 12.6643 31.2999 12.6643 31.668C12.6643 34.0608 10.7245 36.0006 8.33172 36.0006C5.9389 36.0006 3.99912 34.0608 3.99912 31.668C3.99912 29.2751 5.9389 27.3354 8.33172 27.3354C9.26971 27.3328 10.1826 27.6371 10.9312 28.2021C11.2258 28.4231 11.6437 28.3632 11.8643 28.0686C12.0853 27.7741 12.0257 27.3565 11.7312 27.1355C10.0144 25.848 7.71724 25.641 5.79797 26.6005C3.87837 27.5603 2.66602 29.5222 2.66602 31.668Z" fill="white"/>
<path d="M23.995 5.33909C24.3631 5.33909 24.6616 5.04096 24.6616 4.67253C24.6616 4.30443 24.3631 4.00598 23.995 4.00598H6.6646C6.2965 4.00598 5.99805 4.30443 5.99805 4.67253V7.33875C5.99805 7.70717 6.2965 8.0053 6.6646 8.0053H23.995C24.3631 8.0053 24.6616 7.70717 24.6616 7.33875C24.6616 6.97065 24.3631 6.67219 23.995 6.67219H7.33115V5.33909H23.995Z" fill="white"/>
<path d="M8.6646 9.33838C8.2965 9.33838 7.99805 9.63683 7.99805 10.0049C7.99805 10.3734 8.2965 10.6715 8.6646 10.6715H21.9956C22.3637 10.6715 22.6622 10.3734 22.6622 10.0049C22.6622 9.63683 22.3637 9.33838 21.9956 9.33838H8.6646Z" fill="white"/>
<path d="M25.9948 14.0043H11.3306C10.9625 14.0043 10.6641 14.3027 10.6641 14.6708C10.6641 15.0392 10.9625 15.3374 11.3306 15.3374H25.9948C26.3629 15.3374 26.6613 15.0392 26.6613 14.6708C26.6613 14.3027 26.3629 14.0043 25.9948 14.0043Z" fill="white"/>
<path d="M19.3302 18.6701C19.3302 18.302 19.0317 18.0035 18.6636 18.0035H5.33257C4.96447 18.0035 4.66602 18.302 4.66602 18.6701C4.66602 19.0385 4.96447 19.3366 5.33257 19.3366H18.6636C19.0317 19.3366 19.3302 19.0385 19.3302 18.6701Z" fill="white"/>
<path d="M25.9965 18.0035H21.3306C20.9625 18.0035 20.6641 18.302 20.6641 18.6701C20.6641 19.0385 20.9625 19.3366 21.3306 19.3366H25.9965C26.3646 19.3366 26.663 19.0385 26.663 18.6701C26.663 18.302 26.3646 18.0035 25.9965 18.0035Z" fill="white"/>
<path d="M11.9981 22.6694C12.3662 22.6694 12.6647 22.3713 12.6647 22.0029C12.6647 21.6348 12.3662 21.3363 11.9981 21.3363H5.33257C4.96447 21.3363 4.66602 21.6348 4.66602 22.0029C4.66602 22.3713 4.96447 22.6694 5.33257 22.6694H11.9981Z" fill="white"/>
<path d="M14.6646 22.6694H19.3305C19.6986 22.6694 19.997 22.3713 19.997 22.0029C19.997 21.6348 19.6986 21.3363 19.3305 21.3363H14.6646C14.2965 21.3363 13.998 21.6348 13.998 22.0029C13.998 22.3713 14.2965 22.6694 14.6646 22.6694Z" fill="white"/>
<path d="M29.9949 30.6668C29.6268 30.6668 29.3283 30.9653 29.3283 31.3334V37.9989C29.3283 38.3673 29.0299 38.6655 28.6618 38.6655H1.99966C1.63156 38.6655 1.33311 38.3673 1.33311 37.9989V2.00503C1.33311 1.63693 1.63156 1.33848 1.99966 1.33848H28.6618C29.0299 1.33848 29.3283 1.63693 29.3283 2.00503V14.5231C29.3283 14.8912 29.6268 15.1896 29.9949 15.1896C30.363 15.1896 30.6614 14.8912 30.6614 14.5231V2.00503C30.6614 0.900726 29.7661 0.00537109 28.6618 0.00537109H1.99966C0.895355 0.00537109 0 0.900726 0 2.00503V37.9989C0 39.1035 0.895355 39.9986 1.99966 39.9986H28.6618C29.7661 39.9986 30.6614 39.1035 30.6614 37.9989V31.3334C30.6614 30.9653 30.363 30.6668 29.9949 30.6668Z" fill="white"/>
</svg>
