<svg width="42" height="42" viewBox="0 0 42 42" fill="none" xmlns="http://www.w3.org/2000/svg">
<g clip-path="url(#clip0)">
<path d="M24.3186 20.68C23.5474 18.3919 21.0672 17.1622 18.7791 17.9335C16.6345 18.6564 15.396 20.8963 15.9242 23.0969C17.4982 28.5691 23.2553 33.4798 28.5281 37.6525C28.9067 37.9523 29.4567 37.8886 29.7566 37.5099C30.0565 37.1313 29.9927 36.5813 29.6141 36.2813C24.5529 32.2765 19.0354 27.5879 17.6048 22.6142C17.2044 21.2209 18.0094 19.767 19.4026 19.3666C20.7959 18.9662 22.2499 19.7712 22.6502 21.1644C23.6051 24.4872 28.3532 28.5935 32.8704 32.1681C33.2491 32.4679 33.7991 32.4042 34.099 32.0255C34.3989 31.6469 34.3351 31.0969 33.9565 30.7969C31.5711 28.9135 25.2543 23.9153 24.3186 20.68Z" fill="#FFC107"/>
<path d="M30.9468 18.4257C29.0457 12.5972 22.8866 9.30475 16.9841 10.9617C10.9495 12.6932 7.46128 18.9889 9.19287 25.0234C9.1941 25.0277 9.19533 25.0321 9.19656 25.0363C10.6324 30.024 7.5544 31.4073 6.57331 31.7116C6.1126 31.8564 5.85658 32.3474 6.00144 32.8081C6.14629 33.2688 6.63725 33.5248 7.09796 33.38C9.77195 32.5441 12.369 29.7319 10.8772 24.5518C9.4065 19.4472 12.3524 14.117 17.4569 12.6464C17.4596 12.6456 17.4623 12.6448 17.465 12.6441C22.5121 11.2254 27.7707 14.0858 29.3221 19.0937C29.3427 19.162 29.3722 19.2272 29.4095 19.2879C29.5005 19.4383 29.6876 19.7548 35.3083 24.3157C35.683 24.6205 36.2339 24.5637 36.5386 24.1889C36.8433 23.8142 36.7866 23.2633 36.4118 22.9586C34.3692 21.3008 31.3839 18.8367 30.9468 18.4257Z" fill="#FFC107"/>
<path d="M27.6839 19.7129C26.4761 15.5423 22.1234 13.1334 17.9481 14.3247C13.8483 15.5904 11.4688 19.8565 12.5459 24.0098C14.3122 32.0544 12.9918 33.9116 9.36823 35.0449C8.90752 35.1897 8.6515 35.6807 8.79636 36.1414C8.94121 36.6021 9.43217 36.8581 9.89288 36.7133C14.9558 35.1393 16.0558 31.8305 14.2649 23.6337C13.3949 20.3835 15.2343 17.0236 18.4412 16.0053C21.6905 15.0828 25.0749 16.9582 26.0154 20.2025C26.3652 21.3952 27.2938 23.0321 34.4553 28.7001C34.8339 29 35.3839 28.9362 35.6839 28.5576C35.9838 28.1789 35.92 27.629 35.5413 27.329C29.0409 22.1875 27.9286 20.5594 27.6839 19.7129Z" fill="#FFC107"/>
<path d="M30.0914 31.8848C27.1324 29.6393 22.1797 25.8828 20.9608 21.6471C20.8195 21.1854 20.3305 20.9256 19.8687 21.067C19.4182 21.2049 19.1579 21.6749 19.2801 22.1298C20.6582 26.9251 25.9012 30.902 29.0334 33.2786C29.6699 33.737 30.2828 34.2273 30.8696 34.7477C31.217 35.0832 31.7706 35.0736 32.1061 34.7263C32.4334 34.3874 32.4334 33.8501 32.1061 33.5113C31.4657 32.9316 30.7931 32.3886 30.0914 31.8848Z" fill="#FFC107"/>
<path d="M25.359 37.9673C24.4752 36.3277 22.8474 35.222 20.9975 35.0048C18.0244 35.0048 17.5645 40.0589 17.4998 41.0714C17.4698 41.5534 17.8363 41.9683 18.3182 41.9984H18.3742C18.8367 41.9993 19.22 41.6398 19.2487 41.1782C19.3588 39.3769 20.0478 36.7537 20.9975 36.7537C22.2934 36.7537 23.2132 38.0023 23.9513 39.0044C24.1951 39.352 24.4621 39.6827 24.7504 39.9943C25.0978 40.3298 25.6514 40.3201 25.9869 39.9728C26.3142 39.6339 26.3142 39.0967 25.9869 38.7578C25.7607 38.5082 25.551 38.2441 25.359 37.9673Z" fill="#FFC107"/>
<path d="M17.4568 30.3668C17.2924 29.9127 16.791 29.6779 16.337 29.8422C15.9099 29.9968 15.6722 30.4528 15.7902 30.8915C16.5387 33.2297 15.0679 37.8186 12.8557 38.5373C12.3948 38.6816 12.1381 39.1722 12.2823 39.633C12.4266 40.0939 12.9171 40.3506 13.378 40.2064C13.3841 40.2045 13.3901 40.2025 13.3961 40.2005C16.7607 39.1163 18.3836 33.2716 17.4568 30.3668Z" fill="#FFC107"/>
<path d="M36.1298 18.4327C35.0368 18.0829 34.1781 16.6839 33.183 15.0872C31.0774 11.6839 28.1901 7.02332 20.1209 7.02332C11.9152 7.03299 5.26545 13.6827 5.25586 21.8885C5.25586 22.3714 5.64738 22.7629 6.1303 22.7629C6.61323 22.7629 7.00475 22.3714 7.00475 21.8885C7.01245 14.6477 12.8803 8.77991 20.121 8.77221C27.216 8.77221 29.7011 12.7841 31.6983 16.0089C32.8735 17.9064 33.8878 19.545 35.5912 20.0976C36.0489 20.2518 36.5449 20.0058 36.6991 19.5482C36.8533 19.0905 36.6073 18.5946 36.1497 18.4404C36.1437 18.4383 36.1377 18.4364 36.1316 18.4345L36.1298 18.4327Z" fill="#FFC107"/>
<path d="M7.00475 28.8838C7.48767 28.8838 7.87919 28.4923 7.87911 28.0093C7.87911 27.8733 7.84739 27.7392 7.78648 27.6176C7.41332 26.9181 7.1496 26.1656 7.00475 25.3862C7.00475 24.9032 6.61323 24.5117 6.1303 24.5117C5.64738 24.5117 5.25586 24.9032 5.25586 25.3862C5.3962 26.4407 5.72378 27.4617 6.22294 28.4012C6.37132 28.697 6.67389 28.8838 7.00475 28.8838Z" fill="#FFC107"/>
<path d="M6.55107 10.3934C6.96342 10.6448 7.50151 10.5143 7.75285 10.102C7.75334 10.1012 7.75383 10.1004 7.75424 10.0996C8.51327 8.84744 12.2522 5.27457 19.2476 5.27457C25.9701 5.27457 30.7532 8.67955 31.6154 10.0996C31.866 10.5125 32.4039 10.644 32.8168 10.3934C33.2297 10.1428 33.3612 9.6049 33.1106 9.19198C31.9109 7.21577 26.6137 3.52576 19.2476 3.52576C11.4146 3.52576 7.21566 7.61631 6.25727 9.19371C6.00765 9.60621 6.13914 10.1429 6.55107 10.3934Z" fill="#FFC107"/>
<path d="M11.7286 3.44871C12.1291 3.27386 12.4684 3.09892 12.7901 2.92406C14.1053 2.26128 15.0514 1.7768 19.2486 1.7768C22.0826 1.62063 24.9172 2.07446 27.5608 3.10769C27.8948 3.23188 28.2306 3.356 28.5821 3.47667C28.6738 3.50847 28.7701 3.52503 28.8672 3.52561C29.3501 3.52651 29.7423 3.13573 29.7432 2.6528C29.7438 2.2785 29.5063 1.94534 29.1522 1.82402C28.8129 1.70687 28.4911 1.58792 28.1694 1.47422C25.3314 0.367455 22.291 -0.12547 19.2487 0.0279901C14.6248 0.0279901 13.467 0.622567 11.998 1.37634C11.7025 1.52849 11.3877 1.68941 11.0204 1.85377C10.5717 2.03216 10.3525 2.54057 10.5308 2.98931C10.7092 3.43806 11.2176 3.65726 11.6663 3.47896C11.6893 3.46986 11.7118 3.45978 11.7339 3.44871H11.7286Z" fill="#FFC107"/>
<path d="M35.0275 15.1588C35.1919 15.6129 35.6932 15.8478 36.1473 15.6834C36.5744 15.5288 36.812 15.0728 36.6941 14.6342C36.198 13.3495 35.5826 12.1141 34.8561 10.9442C34.603 10.5327 34.0643 10.4043 33.6529 10.6573C33.2415 10.9104 33.113 11.4491 33.3661 11.8605C34.017 12.9083 34.5731 14.0121 35.0275 15.1588Z" fill="#FFC107"/>
<path d="M29.0632 37.8414C28.8664 37.8412 28.6754 37.7746 28.5211 37.6525C23.2484 33.478 17.4965 28.5691 15.9225 23.097C15.3589 20.749 16.8055 18.3888 19.1535 17.8252C21.3541 17.297 23.5941 18.5355 24.3169 20.68C25.2473 23.9136 31.5641 28.9135 33.9355 30.7953C34.3233 31.0831 34.4044 31.6308 34.1166 32.0186C33.8288 32.4063 33.2811 32.4875 32.8933 32.1996C32.879 32.189 32.8649 32.1778 32.8512 32.1664C28.334 28.5918 23.5824 24.4872 22.6293 21.1627C22.2289 19.7699 20.7753 18.9654 19.3826 19.3658C17.9898 19.7662 17.1853 21.2198 17.5857 22.6125C19.0163 27.5862 24.5338 32.2748 29.5932 36.2796C29.9719 36.5794 30.0357 37.1294 29.7359 37.508C29.5698 37.7177 29.3169 37.8399 29.0493 37.8396L29.0632 37.8414Z" fill="white"/>
<path d="M6.82984 33.415C6.34691 33.4141 5.95613 33.0219 5.95703 32.539C5.95769 32.1577 6.2055 31.8207 6.56932 31.7064C7.54689 31.4004 10.6249 30.017 9.19257 25.0311C7.45712 18.9977 10.9413 12.6998 16.9747 10.9643C16.9776 10.9635 16.9807 10.9626 16.9836 10.9618C22.8868 9.30371 29.047 12.5964 30.9481 18.4258C31.3836 18.8351 34.3688 21.3009 36.4114 22.9588C36.7769 23.2744 36.8173 23.8266 36.5017 24.1921C36.1995 24.542 35.6773 24.5962 35.3097 24.3159C29.6871 19.7532 29.5001 19.4367 29.4091 19.2863C29.3729 19.2258 29.3442 19.1612 29.3234 19.0939C27.7721 14.085 22.5123 11.2243 17.4646 12.6442C12.3589 14.1112 9.40923 19.4393 10.8762 24.5449C10.8764 24.5455 10.8765 24.5461 10.8767 24.5467C12.3667 29.725 9.77141 32.5388 7.09569 33.3748C7.00969 33.402 6.92001 33.4156 6.82984 33.415Z" fill="white"/>
<path d="M9.62671 36.7535C9.14379 36.7526 8.75301 36.3605 8.75391 35.8775C8.75456 35.4962 9.00238 35.1593 9.36619 35.0449C12.9898 33.9117 14.3084 32.0509 12.542 24.0098C11.4659 19.8566 13.8451 15.5912 17.9442 14.3247C22.1196 13.1364 26.4707 15.5441 27.6817 19.7129C27.9248 20.5576 29.0353 22.1857 35.5253 27.3239C35.9131 27.6117 35.9942 28.1594 35.7064 28.5471C35.4185 28.9349 34.8708 29.016 34.4831 28.7282C34.4688 28.7175 34.4547 28.7064 34.441 28.6949C27.2707 23.0252 26.3421 21.3865 26.0011 20.1973C25.0639 16.9495 21.6756 15.0724 18.4251 16.0001C15.2147 17.0192 13.3751 20.3847 14.2506 23.6373C16.0502 31.8358 14.9501 35.1359 9.87855 36.7168C9.7969 36.7415 9.71205 36.7539 9.62671 36.7535Z" fill="white"/>
<path d="M31.4874 35.0047C31.2553 35.0051 31.0326 34.9133 30.8683 34.7493C30.2813 34.2285 29.6684 33.7377 29.032 33.2786C25.8999 30.9019 20.6569 26.9251 19.2788 22.1298C19.1374 21.668 19.3971 21.1791 19.8589 21.0377C20.3207 20.8963 20.8096 21.156 20.951 21.6178C20.954 21.6275 20.9567 21.6372 20.9594 21.647C22.1835 25.8826 27.1293 29.6391 30.0883 31.8847C30.7903 32.3893 31.4635 32.9328 32.1047 33.5128C32.4456 33.8548 32.4448 34.4085 32.1027 34.7494C31.9393 34.9125 31.7182 35.0042 31.4874 35.0047Z" fill="white"/>
<path d="M18.3703 41.9999H18.3143C17.8324 41.9699 17.4659 41.555 17.4959 41.073C17.5588 40.0605 18.0205 35.0063 20.9935 35.0063C22.8473 35.2219 24.4793 36.3283 25.3656 37.9706C25.5563 38.2479 25.7655 38.5119 25.9916 38.7611C26.3272 39.1085 26.3175 39.662 25.9702 39.9976C25.6313 40.3249 25.0941 40.3249 24.7552 39.9976C24.4662 39.6871 24.1992 39.3569 23.956 39.0095C23.211 38.0022 22.2911 36.7535 20.9935 36.7535C20.0456 36.7535 19.3548 39.3768 19.2447 41.1798C19.216 41.6414 18.8328 42.0008 18.3703 41.9999Z" fill="white"/>
<path d="M13.1261 40.2512C12.6432 40.2521 12.2509 39.8614 12.25 39.3785C12.2493 38.998 12.4946 38.6608 12.8568 38.5444C15.0673 37.8256 16.5293 33.2366 15.7913 30.8985C15.6184 30.4475 15.8439 29.9419 16.2947 29.769C16.7456 29.5961 17.2513 29.8215 17.4242 30.2724C17.4369 30.3055 17.4476 30.3394 17.4562 30.3738C18.3848 33.2787 16.7567 39.118 13.3954 40.2163C13.308 40.2418 13.2172 40.2536 13.1261 40.2512Z" fill="white"/>
<path d="M6.1303 22.7628C5.64738 22.7628 5.25586 22.3713 5.25586 21.8884C5.26553 13.6826 11.9152 7.03291 20.1209 7.02332C28.1901 7.02332 31.0774 11.6839 33.1847 15.0872C34.1798 16.6909 35.0385 18.0777 36.1315 18.4328C36.5924 18.577 36.8491 19.0676 36.7049 19.5285C36.5607 19.9893 36.0701 20.246 35.6092 20.1018C35.6031 20.0999 35.5971 20.0979 35.5912 20.0959C33.8878 19.5433 32.8735 17.9046 31.6982 16.0071C29.7011 12.7841 27.216 8.77221 20.1209 8.77221C12.8802 8.77991 7.01237 14.6477 7.00467 21.8885C7.00467 22.3713 6.61323 22.7628 6.1303 22.7628Z" fill="white"/>
<path d="M7.00466 28.8837C6.67315 28.8844 6.36976 28.6975 6.22121 28.4011C5.72222 27.4617 5.3953 26.4406 5.25586 25.386C5.25586 24.9031 5.64738 24.5116 6.1303 24.5116C6.61323 24.5116 7.00475 24.9031 7.00475 25.386C7.15001 26.1654 7.41364 26.9179 7.78647 27.6175C8.00281 28.0493 7.8282 28.5747 7.39643 28.791C7.27478 28.852 7.14066 28.8837 7.00466 28.8837Z" fill="white"/>
<path d="M32.3625 10.5209C32.0564 10.5211 31.7725 10.3613 31.6139 10.0995C30.7535 8.67942 25.9687 5.27444 19.2462 5.27444C12.2509 5.27444 8.51184 8.84731 7.7511 10.0995C7.5155 10.521 6.98273 10.6718 6.56121 10.4361C6.13969 10.2005 5.98893 9.66774 6.22461 9.24621C6.23494 9.22768 6.24601 9.20957 6.25765 9.19186C7.21424 7.61619 11.4132 3.52563 19.2463 3.52563C26.6124 3.52563 31.9096 7.21565 33.1093 9.19358C33.3595 9.60666 33.2273 10.1443 32.8142 10.3945C32.6779 10.477 32.5217 10.5208 32.3625 10.5209Z" fill="white"/>
<path d="M28.8638 3.52543C28.7669 3.52559 28.6705 3.50969 28.5788 3.47821C28.229 3.35754 27.8898 3.23162 27.5557 3.10923C24.9127 2.07584 22.0789 1.62136 19.2453 1.77662C15.0481 1.77662 14.102 2.26102 12.7956 2.93085C12.4738 3.09702 12.1328 3.27015 11.7341 3.4555C11.2917 3.6511 10.7745 3.45108 10.5789 3.00865C10.3833 2.5663 10.5834 2.04911 11.0258 1.85352C11.3948 1.68735 11.7078 1.52651 12.0052 1.37436C13.4637 0.62239 14.6232 0.0277311 19.2453 0.0277311C22.2868 -0.127369 25.3265 0.363753 28.1644 1.4688C28.4862 1.58775 28.808 1.70842 29.1472 1.81859C29.607 1.96615 29.8602 2.45858 29.7126 2.91839C29.5946 3.28581 29.2497 3.53256 28.8638 3.52543Z" fill="white"/>
<path d="M35.86 15.7675C35.4797 15.7672 35.1432 15.5212 35.0275 15.1589C34.5732 14.0099 34.0172 12.9037 33.3661 11.8536C33.113 11.4421 33.2414 10.9035 33.6529 10.6504C34.0644 10.3973 34.603 10.5257 34.8561 10.9372C35.5819 12.1073 36.1967 13.3427 36.6924 14.6272C36.8392 15.0873 36.5852 15.5793 36.1252 15.7261C36.0395 15.7534 35.95 15.7675 35.86 15.7675Z" fill="white"/>
</g>
<defs>
<clipPath id="clip0">
<rect width="42" height="42" fill="white"/>
</clipPath>
</defs>
</svg>
