<svg width="7" height="7" viewBox="0 0 7 7" fill="none" xmlns="http://www.w3.org/2000/svg">
<path d="M5.10515 0H1.89483C0.850004 0 0 0.850004 0 1.89483V5.10521C0 6.14998 0.850004 6.99999 1.89483 6.99999H5.10521C6.14998 6.99999 6.99999 6.14998 6.99999 5.10521V1.89483C6.99999 0.850004 6.14998 0 5.10515 0V0ZM3.49999 5.414C2.44459 5.414 1.58599 4.5554 1.58599 3.49999C1.58599 2.44459 2.44459 1.58599 3.49999 1.58599C4.5554 1.58599 5.414 2.44459 5.414 3.49999C5.414 4.5554 4.5554 5.414 3.49999 5.414ZM5.45977 2.03737C5.14788 2.03737 4.8942 1.7837 4.8942 1.47181C4.8942 1.15992 5.14788 0.906187 5.45977 0.906187C5.77166 0.906187 6.02539 1.15992 6.02539 1.47181C6.02539 1.7837 5.77166 2.03737 5.45977 2.03737Z" fill="white"/>
<path d="M3.49973 1.99658C2.67066 1.99658 1.99609 2.6711 1.99609 3.50022C1.99609 4.32929 2.67066 5.00386 3.49973 5.00386C4.32885 5.00386 5.00337 4.32929 5.00337 3.50022C5.00337 2.6711 4.32885 1.99658 3.49973 1.99658Z" fill="white"/>
<path d="M5.45988 1.31641C5.37433 1.31641 5.30469 1.38605 5.30469 1.4716C5.30469 1.55716 5.37433 1.6268 5.45988 1.6268C5.54549 1.6268 5.61513 1.55721 5.61513 1.4716C5.61513 1.38599 5.54549 1.31641 5.45988 1.31641Z" fill="white"/>
</svg>
