<svg width="71" height="71" viewBox="0 0 71 71" fill="none" xmlns="http://www.w3.org/2000/svg">
<g clip-path="url(#clip0)">
<path d="M70.5673 36.5032C70.1239 35.8739 69.4019 35.4997 68.6322 35.5H61.5334V26.0333C61.5319 24.7269 60.4733 23.6681 59.1667 23.6666H56.8V14.2C56.7985 12.8936 55.7397 11.8348 54.4333 11.8333H50.8833V8.28329C50.8818 6.97686 49.8231 5.9181 48.5166 5.91657H44.9666V2.36657C44.9652 1.06015 43.9064 0.00152539 42.6 0H14.2C12.8936 0.00152539 11.8348 1.06015 11.8333 2.36671V23.6667H1.18329C1.11159 23.6741 1.04087 23.6883 0.971951 23.7093C0.906914 23.7133 0.842293 23.723 0.778781 23.7383C0.76949 23.7417 0.763666 23.7495 0.754514 23.753C0.671033 23.7911 0.592545 23.8389 0.520436 23.8957C0.465799 23.9266 0.413658 23.9617 0.364707 24.0008C0.313814 24.0578 0.268746 24.1198 0.230195 24.1856C0.183047 24.243 0.141445 24.3047 0.105945 24.3699C0.0851445 24.4315 0.0693359 24.4947 0.0587969 24.5588C0.0310625 24.6437 0.0134512 24.7316 0.00596289 24.8206C0.00568555 24.8309 0 24.8393 0 24.8499V69.8166C0 69.8318 0.00818164 69.8446 0.00873633 69.86C0.0117871 69.9989 0.0395215 70.1361 0.0905527 70.2653C0.0966543 70.2803 0.1065 70.2928 0.113156 70.3073C0.141445 70.374 0.175975 70.4381 0.216051 70.4984C0.247529 70.5384 0.281643 70.5761 0.318113 70.6114C0.336279 70.6314 0.35181 70.6517 0.371225 70.6702C0.466076 70.7605 0.575488 70.8342 0.694746 70.8882C0.71943 70.8995 0.744529 70.907 0.770184 70.9167C0.901644 70.9692 1.04156 70.9975 1.18315 71H57.6442C58.6442 70.9983 59.5359 70.3697 59.8734 69.4284L70.8613 38.663C71.1205 37.938 71.0108 37.1323 70.5673 36.5032ZM56.8 26.0333H59.1667V35.5H56.8V26.0333ZM54.4333 14.2V35.5H46.9125C50.4307 32.6674 51.7792 27.9235 50.2774 23.6637C48.7756 19.4039 44.7501 16.5548 40.2334 16.5548C35.7167 16.5548 31.6911 19.4039 30.1894 23.6637C28.6876 27.9234 30.0362 32.6672 33.5543 35.5H26.0336V14.2H54.4333ZM40.2333 30.7667C41.1758 30.7495 42.0922 31.0765 42.8108 31.6865C43.4107 32.1554 43.7677 32.8691 43.7833 33.6303V34.6893C41.54 35.7701 38.9266 35.7701 36.6833 34.6893V33.6303C36.8942 31.871 38.4692 30.6004 40.2333 30.7667ZM37.8667 26.0333C37.8667 24.7262 38.9263 23.6666 40.2334 23.6666C41.5405 23.6666 42.6001 24.7262 42.6001 26.0333C42.6001 27.3404 41.5405 28.4 40.2334 28.4C38.9269 28.3985 37.8681 27.3399 37.8667 26.0333ZM43.6025 29.3502C45.4329 27.4961 45.421 24.5114 43.5758 22.6719C41.7307 20.8324 38.7459 20.8298 36.8975 22.6661C35.0492 24.5023 35.032 27.487 36.8593 29.3442C35.5068 30.143 34.5938 31.5162 34.3804 33.0723C32.0088 30.7042 31.2978 27.1403 32.5793 24.0435C33.8608 20.9467 36.8821 18.9272 40.2336 18.9275C43.585 18.9277 46.6062 20.9474 47.8874 24.0443C49.1686 27.1413 48.4574 30.705 46.0855 33.073C45.9323 31.8292 45.3117 30.6903 44.3496 29.8873C44.1154 29.6885 43.8655 29.509 43.6025 29.3502ZM48.5167 8.28329V11.8333H26.0333C24.7269 11.8348 23.6681 12.8936 23.6666 14.2V35.5H20.1166V8.28329H48.5167ZM14.2 2.36671H42.6V5.91671H20.1167C18.8103 5.91824 17.7515 6.97686 17.75 8.28343V35.5H14.2V2.36671ZM11.8333 26.0333V35.6808L6.69258 36.5378L2.87286 26.0334H11.8333V26.0333ZM2.36671 31.5675L4.46815 37.3467C4.85795 38.4188 5.95707 39.0601 7.08211 38.8721L11.2251 38.1816L2.36671 62.9852V31.5675ZM57.6442 68.6333H2.86246L13.8504 37.8666H68.632L57.6442 68.6333Z" fill="url(#paint0_linear)"/>
<path d="M26.0326 49.5318V52.0666C26.0347 54.0263 27.6229 55.6145 29.5826 55.6166H46.1494C48.1091 55.6145 49.6973 54.0263 49.6994 52.0666V49.5318C52.0066 48.9401 53.5123 46.7232 53.2116 44.3603C52.911 41.9975 50.8979 40.2282 48.5161 40.2333C46.1341 40.2282 44.1211 41.9975 43.8205 44.3603C43.5199 46.7232 45.0256 48.9403 47.3328 49.5318V52.0666C47.3321 52.7199 46.8026 53.2493 46.1495 53.2499H29.5826C28.9294 53.2492 28.3999 52.7199 28.3994 52.0666V49.5318C30.7073 48.936 32.212 46.7169 31.9116 44.3524C31.6113 41.9879 29.5996 40.2156 27.2161 40.2156C24.8326 40.2156 22.8209 41.9879 22.5205 44.3524C22.2201 46.7169 23.7249 48.9358 26.0326 49.5318ZM46.2301 44.3419C46.5073 43.3073 47.445 42.5878 48.5161 42.5878C49.5872 42.5878 50.5249 43.3073 50.8021 44.3419C51.0793 45.3765 50.6271 46.4684 49.6994 47.004V46.1499C49.6994 45.4963 49.1696 44.9666 48.5161 44.9666C47.8625 44.9666 47.3328 45.4965 47.3328 46.1499V47.004C46.4051 46.4684 45.9527 45.3765 46.2301 44.3419ZM26.797 42.6251C27.9288 42.4216 29.0434 43.0611 29.4384 44.1411C29.8335 45.2211 29.3952 46.4289 28.3992 47.004V46.1499C28.3992 45.4963 27.8695 44.9666 27.2159 44.9666C26.5624 44.9666 26.0326 45.4965 26.0326 46.1499V47.004C25.303 46.5845 24.8521 45.8081 24.8494 44.9665C24.8435 43.8166 25.6652 42.8287 26.797 42.6251Z" fill="url(#paint1_linear)"/>
</g>
<defs>
<linearGradient id="paint0_linear" x1="35.4997" y1="0" x2="35.4997" y2="71" gradientUnits="userSpaceOnUse">
<stop stop-color="#0075FB"/>
<stop offset="1" stop-color="#3392FF"/>
</linearGradient>
<linearGradient id="paint1_linear" x1="37.8661" y1="40.2156" x2="37.8661" y2="55.6166" gradientUnits="userSpaceOnUse">
<stop stop-color="#0075FB"/>
<stop offset="1" stop-color="#3392FF"/>
</linearGradient>
<clipPath id="clip0">
<rect width="71" height="71" fill="white"/>
</clipPath>
</defs>
</svg>
