<svg width="14" height="15" viewBox="0 0 14 15" fill="none" xmlns="http://www.w3.org/2000/svg">
<path d="M0 2.42233V11.7052C0 12.9843 0.853559 14.0277 1.89986 14.0277H8.03692C9.08322 14.0277 9.93678 12.9843 9.93678 11.7052V10.2017C9.93678 9.94733 9.76851 9.74162 9.56048 9.74162C9.35244 9.74162 9.18418 9.94733 9.18418 10.2017V11.7052C9.18418 12.4793 8.66714 13.1114 8.03386 13.1114H1.89986C1.26657 13.1114 0.749541 12.4793 0.749541 11.7052V2.42233C0.749541 1.64814 1.26657 1.01607 1.89986 1.01607H8.03692C8.6702 1.01607 9.18723 1.64814 9.18723 2.42233V3.92583C9.18723 4.18016 9.3555 4.38586 9.56353 4.38586C9.77157 4.38586 9.93983 4.18016 9.93983 3.92583V2.42233C9.93983 1.14323 9.08628 0.0997505 8.03998 0.0997505H1.89986C0.853559 0.0997505 0 1.13949 0 2.42233Z" fill="white"/>
<path d="M8.05196 10.5233C7.97853 10.613 7.88369 10.6579 7.78579 10.6579C7.68789 10.6579 7.59305 10.613 7.51963 10.5233L4.95283 7.38537C4.80598 7.20585 4.80598 6.91786 4.95283 6.73834L7.51963 3.60043C7.66648 3.42091 7.90205 3.42091 8.0489 3.60043C8.19574 3.77995 8.19574 4.06794 8.0489 4.24746L6.12151 6.6037H13.1549C13.363 6.6037 13.5312 6.8094 13.5312 7.06372C13.5312 7.31805 13.363 7.52375 13.1549 7.52375H6.12457L8.05196 9.87999C8.1988 10.0558 8.1988 10.3475 8.05196 10.5233Z" fill="white"/>
</svg>
