<svg width="71" height="71" viewBox="0 0 71 71" fill="none" xmlns="http://www.w3.org/2000/svg">
<g clip-path="url(#clip0)">
<path d="M59.0044 5.69604C53.5794 5.69604 49.293 10.0494 49.293 15.4744C49.293 20.8994 53.6464 25.1858 59.0044 25.1858C64.3624 25.1858 68.7827 20.8324 68.7827 15.4074C68.7827 9.98245 64.4293 5.69604 59.0044 5.69604ZM59.0044 23.0426C54.7849 23.0426 51.3692 19.6269 51.3692 15.4074C51.3692 11.188 54.8519 7.83925 59.0044 7.83925C63.2238 7.83925 66.6395 11.255 66.6395 15.4744C66.6395 19.6938 63.2238 23.0426 59.0044 23.0426Z" fill="url(#paint0_linear)"/>
<path d="M62.0861 16.9479C62.0191 16.747 62.0191 16.613 61.8852 16.4121C61.8182 16.2782 61.7512 16.0772 61.6173 15.9433C61.4833 15.8093 61.4164 15.6754 61.2824 15.5414C61.1485 15.4075 61.0145 15.2735 60.8136 15.2066C60.6796 15.0726 60.4787 15.0056 60.3448 14.9387C60.1438 14.8717 60.0099 14.7377 59.809 14.6707C59.608 14.6038 59.4071 14.5368 59.2732 14.4698C59.2062 14.4698 59.0722 14.4028 59.0053 14.3359C58.9383 14.2689 58.8043 14.2689 58.7373 14.2019C58.6704 14.1349 58.5364 14.1349 58.4695 14.068C58.4025 14.001 58.3355 13.934 58.2685 13.867C58.2016 13.8001 58.1346 13.7331 58.1346 13.5991C58.0676 13.5322 58.0676 13.3982 58.0676 13.3312C58.0676 13.1973 58.0676 13.1303 58.0676 12.9964C58.0676 12.9294 58.1346 12.7954 58.1346 12.7285C58.2016 12.6615 58.2016 12.5275 58.2685 12.4606C58.3355 12.3936 58.4025 12.3266 58.4695 12.2596C58.5364 12.1927 58.6704 12.1257 58.8043 12.1257C58.9383 12.0587 59.0053 12.0587 59.1392 12.0587C59.2062 12.0587 59.2732 12.0587 59.3401 12.0587C59.4071 12.0587 59.4741 12.0587 59.5411 12.0587C59.675 12.0587 59.742 12.0587 59.8759 12.1257C60.0099 12.1257 60.1438 12.1927 60.2108 12.1927C60.2778 12.1927 60.4117 12.2596 60.4787 12.2596C60.6127 12.2596 60.6796 12.3266 60.7466 12.3266L61.0815 12.4606L61.1485 12.0587L61.2824 10.9871V10.7192L61.0145 10.6522C60.9475 10.6522 60.8136 10.5853 60.7466 10.5853C60.6796 10.5853 60.6127 10.5183 60.4787 10.5183C60.4117 10.5183 60.2778 10.4513 60.1438 10.4513C60.0099 10.4513 59.9429 10.3843 59.809 10.3843H59.742V9.44669V9.11182H59.4071H58.4695H58.1346V9.44669V10.4513H58.0676C57.8667 10.5183 57.6658 10.5853 57.4648 10.7192C57.2639 10.7862 57.1299 10.9201 56.996 11.0541C56.862 11.188 56.7281 11.322 56.5941 11.5229C56.4602 11.6569 56.3932 11.8578 56.3262 12.0587C56.2593 12.2596 56.1923 12.4606 56.1253 12.6615C56.0583 12.8624 56.0583 13.1303 56.0583 13.3312C56.0583 13.5322 56.0583 13.6661 56.1253 13.867C56.1923 14.068 56.1923 14.2019 56.3262 14.4028C56.3932 14.5368 56.5272 14.7377 56.5941 14.8717C56.7281 15.0056 56.7951 15.1396 56.929 15.2735C57.063 15.4075 57.1969 15.5414 57.3978 15.6084C57.5318 15.7424 57.7327 15.8093 57.8667 15.8763C58.0676 15.9433 58.2685 16.0772 58.4025 16.1442C58.6034 16.2112 58.8043 16.2782 58.9383 16.3451C59.0053 16.3451 59.1392 16.4121 59.2062 16.4791C59.2732 16.5461 59.4071 16.5461 59.4741 16.613C59.5411 16.68 59.608 16.747 59.675 16.747C59.742 16.814 59.809 16.8809 59.8759 16.9479C59.9429 17.0149 59.9429 17.0819 60.0099 17.2158C60.0099 17.2828 60.0769 17.4167 60.0769 17.5507C60.0769 17.6846 60.0769 17.7516 60.0769 17.8856C60.0769 17.9525 60.0099 18.0865 59.9429 18.1535C59.8759 18.2204 59.809 18.2874 59.742 18.3544C59.675 18.4214 59.608 18.4883 59.4741 18.5553C59.4071 18.6223 59.2732 18.6223 59.2062 18.6893C59.1392 18.6893 59.0053 18.7562 58.8713 18.7562C58.8043 18.7562 58.7374 18.7562 58.6034 18.7562C58.5364 18.7562 58.4025 18.7562 58.3355 18.7562C58.2015 18.7562 58.0676 18.7562 58.0006 18.7562C57.8667 18.7562 57.7327 18.6893 57.6657 18.6893C57.5318 18.6893 57.3978 18.6223 57.2639 18.5553C57.1299 18.4883 56.996 18.4883 56.862 18.4214C56.7951 18.4214 56.7281 18.3544 56.6611 18.3544C56.5941 18.3544 56.5272 18.2874 56.4602 18.2874L56.0583 18.0865L55.9914 18.5553L55.8574 19.7609V19.9618L56.0583 20.0288C56.3262 19.9618 56.4602 20.0288 56.6611 20.0957C56.7951 20.1627 56.996 20.2297 57.13 20.2297C57.2639 20.2967 57.4648 20.2967 57.6657 20.3636C57.8667 20.4306 58.0006 20.4306 58.2016 20.4306H58.3355V21.4352V21.7701H58.6704H59.608H59.9429V21.4352V20.3636H60.0099C60.2108 20.2967 60.4117 20.2297 60.6127 20.0957C60.8136 20.0288 60.9475 19.8948 61.1485 19.7609C61.2824 19.6269 61.4164 19.493 61.5503 19.292C61.6843 19.1581 61.7512 18.9572 61.8852 18.7562C61.9522 18.5553 62.0191 18.3544 62.0861 18.1535C62.1531 17.9525 62.1531 17.7516 62.1531 17.4837C62.1531 17.2828 62.1531 17.1488 62.0861 16.9479Z" fill="url(#paint1_linear)"/>
<path d="M54.316 26.4583C53.9811 25.9895 53.2444 25.9225 52.7756 26.2574L41.9256 34.8972L27.9278 29.0704C27.5929 28.9364 27.191 29.0034 26.9231 29.2043L11.9207 39.9203C11.4519 40.2552 11.3179 40.925 11.6528 41.3938C11.8537 41.7287 12.1886 41.8626 12.5235 41.8626C12.7244 41.8626 12.9253 41.7956 13.1263 41.6617L27.6599 31.2805L41.7246 37.1074C42.0595 37.2413 42.5284 37.1744 42.7963 36.9734L54.1151 27.9987C54.5839 27.6639 54.6508 26.9271 54.316 26.4583Z" fill="url(#paint2_linear)"/>
<path d="M69.989 63.1609H65.0329V32.1514C65.0329 31.5487 64.564 31.0798 63.9613 31.0798H54.1159C53.5131 31.0798 53.0443 31.5487 53.0443 32.1514V63.1609H49.4277V42.8675C49.4277 42.2647 48.9588 41.7959 48.3561 41.7959H38.4437C37.841 41.7959 37.3721 42.2647 37.3721 42.8675V63.1609H33.7555V41.2601C33.7555 40.6573 33.2867 40.1885 32.6839 40.1885H22.8385C22.2358 40.1885 21.7669 40.6573 21.7669 41.2601V63.1609H18.1503V47.5557C18.1503 46.9529 17.6814 46.4841 17.0787 46.4841H7.16634C6.56356 46.4841 6.09474 46.9529 6.09474 47.5557V63.1609H1.0716C0.468826 63.1609 0 63.6298 0 64.2325C0 64.8353 0.468826 65.3041 1.0716 65.3041H7.09937H16.9447H22.8385H32.6839H38.4437H48.2891H54.0489H63.8943H69.9221C70.5248 65.3041 70.9937 64.8353 70.9937 64.2325C71.0606 63.6298 70.5918 63.1609 69.989 63.1609ZM15.9401 63.1609H8.23794V48.6273H15.9401V63.1609ZM31.6123 63.1609H23.9101V42.3317H31.6123V63.1609ZM47.2175 63.1609H39.5153V43.9391H47.2175V63.1609ZM62.8897 63.1609H55.1875V33.223H62.8897V63.1609Z" fill="url(#paint3_linear)"/>
</g>
<defs>
<linearGradient id="paint0_linear" x1="59.0378" y1="5.69604" x2="59.0378" y2="25.1858" gradientUnits="userSpaceOnUse">
<stop stop-color="#0075FB"/>
<stop offset="1" stop-color="#3392FF"/>
</linearGradient>
<linearGradient id="paint1_linear" x1="59.0053" y1="9.11182" x2="59.0053" y2="21.7701" gradientUnits="userSpaceOnUse">
<stop stop-color="#0075FB"/>
<stop offset="1" stop-color="#3392FF"/>
</linearGradient>
<linearGradient id="paint2_linear" x1="32.996" y1="26.0481" x2="32.996" y2="41.8626" gradientUnits="userSpaceOnUse">
<stop stop-color="#0075FB"/>
<stop offset="1" stop-color="#3392FF"/>
</linearGradient>
<linearGradient id="paint3_linear" x1="35.5" y1="31.0798" x2="35.5" y2="65.3041" gradientUnits="userSpaceOnUse">
<stop stop-color="#0075FB"/>
<stop offset="1" stop-color="#3392FF"/>
</linearGradient>
<clipPath id="clip0">
<rect width="71" height="71" fill="white"/>
</clipPath>
</defs>
</svg>
