<svg width="70" height="70" viewBox="0 0 70 70" fill="none" xmlns="http://www.w3.org/2000/svg">
<path d="M70 35C70 15.7015 54.2985 0 35 0C28.9495 0 23.0548 1.5671 17.8285 4.51613H13.5484V0H6.77419V14.324C2.34839 20.3531 0 27.4885 0 35C0 54.2997 15.7015 70 35 70C39.3005 70 43.4982 69.2266 47.4781 67.7069C49.7497 69.151 52.4368 70 55.3226 70C58.8429 70 62.2481 68.7344 64.9103 66.4368L63.4347 64.7274C61.1823 66.6716 58.3021 67.7419 55.3226 67.7419C48.475 67.7419 42.9032 62.1702 42.9032 55.3226C42.9032 48.475 48.475 42.9032 55.3226 42.9032C62.1702 42.9032 67.7419 48.475 67.7419 55.3226C67.7419 58.1847 66.7958 60.8752 65.004 63.1027L66.7642 64.5185C68.8506 61.9229 70 58.6577 70 55.3226C70 52.4345 69.1498 49.7474 67.7047 47.4747C69.2232 43.4937 70 39.3005 70 35ZM18.0645 11.2903H20.3226V13.5484V27.0968H18.0645V11.2903ZM13.5484 6.77419H15.8065V9.03226V27.0968H13.5484V6.77419ZM9.03226 2.25806H11.2903V4.51613V27.0968H9.03226V2.25806ZM33.871 67.7137C16.7142 67.1277 2.87226 53.2858 2.28629 36.129H33.871V67.7137ZM33.871 33.871H2.30323C2.48726 28.3748 4.01371 23.1226 6.77419 18.4405V29.3548H11.2903H13.5484H15.8065H18.0645H20.3226H22.5806H24.8387H27.0968H31.6129V18.0645H27.0968V13.5484H22.5806V9.03226H18.0645V6.99097C22.8415 4.09613 28.2698 2.48952 33.871 2.29758V33.871ZM22.5806 27.0968V15.8065H24.8387V18.0645V27.0968H22.5806ZM27.0968 27.0968V20.3226H29.3548V27.0968H27.0968ZM67.7137 33.871H58.0481L66.351 25.5681C67.1481 28.2111 67.6155 30.9942 67.7137 33.871ZM62.0245 16.5403L49.4144 29.1505L51.0108 30.7469L63.2608 18.4969C64.1369 19.9918 64.8968 21.5611 65.5313 23.1948L54.8552 33.871H47.8868L49.3466 32.4111L47.7502 30.8147L44.6939 33.871H37.7255L58.9208 12.6756C60.0476 13.8837 61.0874 15.1731 62.0245 16.5403ZM36.129 2.28629C39.0058 2.38452 41.7889 2.85194 44.4319 3.64903L36.129 11.9519V2.28629ZM36.129 25.3061L49.8502 11.585L48.2537 9.98855L36.129 22.1132V15.1448L46.8052 4.46871C48.4389 5.1021 50.0082 5.86194 51.5031 6.73919L49.6842 8.55806L51.2806 10.1545L53.4597 7.97548C54.8269 8.91258 56.1163 9.95129 57.3244 11.0792L36.129 32.2745V25.3061ZM55.3226 40.6452C47.2297 40.6452 40.6452 47.2297 40.6452 55.3226C40.6452 59.5689 42.4685 63.3873 45.36 66.0698C42.385 67.0623 39.2903 67.6098 36.129 67.716V36.129H67.716C67.6098 39.2892 67.0577 42.3816 66.0665 45.3566C63.3839 42.4663 59.5666 40.6452 55.3226 40.6452Z" fill="url(#paint0_linear)"/>
<path d="M27.4333 40.9757L13.8848 54.5242L15.4814 56.1208L29.03 42.5724L27.4333 40.9757Z" fill="url(#paint1_linear)"/>
<path d="M25.9672 49.6775C24.0998 49.6775 22.5801 51.1972 22.5801 53.0646C22.5801 54.932 24.0998 56.4517 25.9672 56.4517C27.8346 56.4517 29.3543 54.932 29.3543 53.0646C29.3543 51.1972 27.8346 49.6775 25.9672 49.6775ZM25.9672 54.1936C25.3451 54.1936 24.8381 53.6878 24.8381 53.0646C24.8381 52.4414 25.3451 51.9356 25.9672 51.9356C26.5893 51.9356 27.0962 52.4414 27.0962 53.0646C27.0962 53.6878 26.5893 54.1936 25.9672 54.1936Z" fill="url(#paint2_linear)"/>
<path d="M16.9359 40.6453C15.0685 40.6453 13.5488 42.1649 13.5488 44.0324C13.5488 45.8998 15.0685 47.4195 16.9359 47.4195C18.8033 47.4195 20.323 45.8998 20.323 44.0324C20.323 42.1649 18.8033 40.6453 16.9359 40.6453ZM16.9359 45.1614C16.3138 45.1614 15.8069 44.6556 15.8069 44.0324C15.8069 43.4091 16.3138 42.9033 16.9359 42.9033C17.558 42.9033 18.065 43.4091 18.065 44.0324C18.065 44.6556 17.558 45.1614 16.9359 45.1614Z" fill="url(#paint3_linear)"/>
<path d="M55.3228 54.1936C54.0774 54.1936 53.0647 53.1809 53.0647 51.9356C53.0647 50.6902 54.0774 49.6775 55.3228 49.6775C56.5681 49.6775 57.5808 50.6902 57.5808 51.9356H59.8389C59.8389 49.8367 58.3937 48.0844 56.4518 47.5798V45.1614H54.1937V47.5798C52.2518 48.0844 50.8066 49.8367 50.8066 51.9356C50.8066 54.4262 52.8321 56.4517 55.3228 56.4517C56.5681 56.4517 57.5808 57.4644 57.5808 58.7098C57.5808 59.9551 56.5681 60.9678 55.3228 60.9678C54.0774 60.9678 53.0647 59.9551 53.0647 58.7098H50.8066C50.8066 60.8086 52.2518 62.5609 54.1937 63.0656V65.484H56.4518V63.0656C58.3937 62.5609 59.8389 60.8086 59.8389 58.7098C59.8389 56.2191 57.8134 54.1936 55.3228 54.1936Z" fill="url(#paint4_linear)"/>
<path d="M65.4846 54.1936H63.2266V56.4517H65.4846V54.1936Z" fill="url(#paint5_linear)"/>
<path d="M47.4202 54.1936H45.1621V56.4517H47.4202V54.1936Z" fill="url(#paint6_linear)"/>
<defs>
<linearGradient id="paint0_linear" x1="35" y1="0" x2="35" y2="70" gradientUnits="userSpaceOnUse">
<stop stop-color="#0075FB"/>
<stop offset="1" stop-color="#3392FF"/>
</linearGradient>
<linearGradient id="paint1_linear" x1="20.659" y1="47.7499" x2="22.2557" y2="49.3466" gradientUnits="userSpaceOnUse">
<stop stop-color="#0075FB"/>
<stop offset="1" stop-color="#3392FF"/>
</linearGradient>
<linearGradient id="paint2_linear" x1="25.9672" y1="49.6775" x2="25.9672" y2="56.4517" gradientUnits="userSpaceOnUse">
<stop stop-color="#0075FB"/>
<stop offset="1" stop-color="#3392FF"/>
</linearGradient>
<linearGradient id="paint3_linear" x1="16.9359" y1="40.6453" x2="16.9359" y2="47.4195" gradientUnits="userSpaceOnUse">
<stop stop-color="#0075FB"/>
<stop offset="1" stop-color="#3392FF"/>
</linearGradient>
<linearGradient id="paint4_linear" x1="55.3228" y1="45.1614" x2="55.3228" y2="65.484" gradientUnits="userSpaceOnUse">
<stop stop-color="#0075FB"/>
<stop offset="1" stop-color="#3392FF"/>
</linearGradient>
<linearGradient id="paint5_linear" x1="64.3556" y1="54.1936" x2="64.3556" y2="56.4517" gradientUnits="userSpaceOnUse">
<stop stop-color="#0075FB"/>
<stop offset="1" stop-color="#3392FF"/>
</linearGradient>
<linearGradient id="paint6_linear" x1="46.2911" y1="54.1936" x2="46.2911" y2="56.4517" gradientUnits="userSpaceOnUse">
<stop stop-color="#0075FB"/>
<stop offset="1" stop-color="#3392FF"/>
</linearGradient>
</defs>
</svg>
