<svg width="191" height="51" viewBox="0 0 191 51" fill="none" xmlns="http://www.w3.org/2000/svg">
<path d="M73.1484 42H67.6992V20.8359H60.7207V16.3008H80.127V20.8359H73.1484V42ZM87.9316 32.1387C87.9316 34.084 88.248 35.5547 88.8809 36.5508C89.5254 37.5469 90.5684 38.0449 92.0098 38.0449C93.4395 38.0449 94.4648 37.5527 95.0859 36.5684C95.7188 35.5723 96.0352 34.0957 96.0352 32.1387C96.0352 30.1934 95.7188 28.7344 95.0859 27.7617C94.4531 26.7891 93.416 26.3027 91.9746 26.3027C90.5449 26.3027 89.5137 26.7891 88.8809 27.7617C88.248 28.7227 87.9316 30.1816 87.9316 32.1387ZM101.52 32.1387C101.52 35.3379 100.676 37.8398 98.9883 39.6445C97.3008 41.4492 94.9512 42.3516 91.9395 42.3516C90.0527 42.3516 88.3887 41.9414 86.9473 41.1211C85.5059 40.2891 84.3984 39.0996 83.625 37.5527C82.8516 36.0059 82.4648 34.2012 82.4648 32.1387C82.4648 28.9277 83.3027 26.4316 84.9785 24.6504C86.6543 22.8691 89.0098 21.9785 92.0449 21.9785C93.9316 21.9785 95.5957 22.3887 97.0371 23.209C98.4785 24.0293 99.5859 25.207 100.359 26.7422C101.133 28.2773 101.52 30.0762 101.52 32.1387ZM111.1 31.3125L113.438 28.3242L118.939 22.3477H124.986L117.182 30.873L125.461 42H119.273L113.613 34.0371L111.311 35.8828V42H105.949V14.6484H111.311V26.8477L111.029 31.3125H111.1ZM133.424 31.3125L135.762 28.3242L141.264 22.3477H147.311L139.506 30.873L147.785 42H141.598L135.938 34.0371L133.635 35.8828V42H128.273V14.6484H133.635V26.8477L133.354 31.3125H133.424ZM150.369 17.2676C150.369 15.5215 151.342 14.6484 153.287 14.6484C155.232 14.6484 156.205 15.5215 156.205 17.2676C156.205 18.0996 155.959 18.75 155.467 19.2188C154.986 19.6758 154.26 19.9043 153.287 19.9043C151.342 19.9043 150.369 19.0254 150.369 17.2676ZM155.959 42H150.598V22.3477H155.959V42ZM174.082 42L173.045 39.3281H172.904C172.002 40.4648 171.07 41.2559 170.109 41.7012C169.16 42.1348 167.918 42.3516 166.383 42.3516C164.496 42.3516 163.008 41.8125 161.918 40.7344C160.84 39.6562 160.301 38.1211 160.301 36.1289C160.301 34.043 161.027 32.5078 162.48 31.5234C163.945 30.5273 166.148 29.9766 169.09 29.8711L172.5 29.7656V28.9043C172.5 26.9121 171.48 25.916 169.441 25.916C167.871 25.916 166.025 26.3906 163.904 27.3398L162.129 23.7188C164.391 22.5352 166.898 21.9434 169.652 21.9434C172.289 21.9434 174.311 22.5176 175.717 23.666C177.123 24.8145 177.826 26.5605 177.826 28.9043V42H174.082ZM172.5 32.8945L170.426 32.9648C168.867 33.0117 167.707 33.293 166.945 33.8086C166.184 34.3242 165.803 35.1094 165.803 36.1641C165.803 37.6758 166.67 38.4316 168.404 38.4316C169.646 38.4316 170.637 38.0742 171.375 37.3594C172.125 36.6445 172.5 35.6953 172.5 34.5117V32.8945Z" fill="white"/>
<rect x="10.2969" y="28.2955" width="31.4271" height="31.4271" rx="4" transform="rotate(-45 10.2969 28.2955)" fill="white"/>
<g filter="url(#filter0_d)">
<circle cx="14.5" cy="10.5" r="4.5" fill="#15D411"/>
</g>
<defs>
<filter id="filter0_d" x="0" y="0" width="29" height="29" filterUnits="userSpaceOnUse" color-interpolation-filters="sRGB">
<feFlood flood-opacity="0" result="BackgroundImageFix"/>
<feColorMatrix in="SourceAlpha" type="matrix" values="0 0 0 0 0 0 0 0 0 0 0 0 0 0 0 0 0 0 127 0"/>
<feOffset dy="4"/>
<feGaussianBlur stdDeviation="5"/>
<feColorMatrix type="matrix" values="0 0 0 0 0.0823529 0 0 0 0 0.831373 0 0 0 0 0.0666667 0 0 0 0.65 0"/>
<feBlend mode="normal" in2="BackgroundImageFix" result="effect1_dropShadow"/>
<feBlend mode="normal" in="SourceGraphic" in2="effect1_dropShadow" result="shape"/>
</filter>
</defs>
</svg>
