<svg width="191" height="51" fill="none" xmlns="http://www.w3.org/2000/svg">
    <path d="M73.148 42H67.7V20.836h-6.978V16.3h19.406v4.535h-6.979V42zm14.784-9.861c0 1.945.316 3.416.949 4.412.644.996 1.687 1.494 3.129 1.494 1.43 0 2.455-.492 3.076-1.477.633-.996.95-2.472.95-4.43 0-1.945-.317-3.404-.95-4.376-.633-.973-1.67-1.46-3.111-1.46-1.43 0-2.461.487-3.094 1.46-.633.96-.95 2.42-.95 4.377zm13.588 0c0 3.199-.844 5.7-2.532 7.505-1.687 1.805-4.037 2.708-7.049 2.708-1.886 0-3.55-.41-4.992-1.23-1.441-.833-2.549-2.022-3.322-3.57-.773-1.546-1.16-3.35-1.16-5.413 0-3.211.838-5.707 2.513-7.489 1.676-1.78 4.032-2.671 7.067-2.671 1.887 0 3.55.41 4.992 1.23 1.441.82 2.549 1.998 3.322 3.533.774 1.535 1.161 3.334 1.161 5.397zm9.58-.827l2.338-2.988 5.501-5.976h6.047l-7.804 8.525L125.461 42h-6.188l-5.66-7.963-2.302 1.846V42h-5.362V14.648h5.362v12.2l-.282 4.465h.071zm22.324 0l2.338-2.988 5.502-5.976h6.047l-7.805 8.525L147.785 42h-6.187l-5.66-7.963-2.303 1.846V42h-5.362V14.648h5.362v12.2l-.281 4.465h.07zm16.945-14.044c0-1.747.973-2.62 2.918-2.62 1.945 0 2.918.873 2.918 2.62 0 .832-.246 1.482-.738 1.95-.481.458-1.207.686-2.18.686-1.945 0-2.918-.879-2.918-2.636zM155.959 42h-5.361V22.348h5.361V42zm18.123 0l-1.037-2.672h-.141c-.902 1.137-1.834 1.928-2.795 2.373-.949.434-2.191.65-3.726.65-1.887 0-3.375-.538-4.465-1.617-1.078-1.078-1.617-2.613-1.617-4.605 0-2.086.726-3.621 2.179-4.606 1.465-.996 3.668-1.546 6.61-1.652l3.41-.105v-.862c0-1.992-1.02-2.988-3.059-2.988-1.57 0-3.416.475-5.537 1.424l-1.775-3.621c2.262-1.184 4.769-1.776 7.523-1.776 2.637 0 4.659.575 6.065 1.723 1.406 1.148 2.109 2.895 2.109 5.238V42h-3.744zm-1.582-9.105l-2.074.07c-1.559.047-2.719.328-3.481.844-.761.515-1.142 1.3-1.142 2.355 0 1.512.867 2.268 2.601 2.268 1.242 0 2.233-.358 2.971-1.073.75-.715 1.125-1.664 1.125-2.847v-1.617z" fill="#fff"/>
    <rect x="10.297" y="28.296" width="31.427" height="31.427" rx="4" transform="rotate(-45 10.297 28.296)" fill="#fff"/>
    <g filter="url(#filter0_d)">
        <circle cx="14.5" cy="10.5" r="4.5" fill="#15D411"/>
    </g>
    <defs>
        <filter id="filter0_d" x="0" y="0" width="29" height="29" filterUnits="userSpaceOnUse" color-interpolation-filters="sRGB">
            <feFlood flood-opacity="0" result="BackgroundImageFix"/>
            <feColorMatrix in="SourceAlpha" values="0 0 0 0 0 0 0 0 0 0 0 0 0 0 0 0 0 0 127 0"/>
            <feOffset dy="4"/>
            <feGaussianBlur stdDeviation="5"/>
            <feColorMatrix values="0 0 0 0 0.0823529 0 0 0 0 0.831373 0 0 0 0 0.0666667 0 0 0 0.65 0"/>
            <feBlend in2="BackgroundImageFix" result="effect1_dropShadow"/>
            <feBlend in="SourceGraphic" in2="effect1_dropShadow" result="shape"/>
        </filter>
    </defs>
</svg>
